<svg xmlns="http://www.w3.org/2000/svg" width="153.289" height="39.835"><path d="M10.516 39.273A14.427 14.427 0 01.337 28.083C.123 26.948 0 21.246 0 13.122V0h8.278v12.478l1.778-.613a16.04 16.04 0 019.075.061A14.186 14.186 0 0128.6 27.469a14.416 14.416 0 01-18.084 11.804zm7.266-8.584c4.905-2.943 3.556-9.742-2.3-11.152a7.105 7.105 0 00-5.3 1.372c-1.625 1.564-1.993 2.514-1.839 4.875.092 1.778.245 2.269 1.042 3.219 2.388 2.973 5.3 3.556 8.396 1.685zM31.271 8.952a5.864 5.864 0 01-2.453-4.016c0-2.667 2.943-5.212 5.518-4.783a4.637 4.637 0 013.894 5 4.858 4.858 0 01-6.959 3.799z" fill="#718096"></path><g fill="#718096"><path d="M111.993 39.243a13.552 13.552 0 01-5.058-2.207l-.858-.583v2.483h-8.278v-11.1c0-6.959-.123-10.975-.276-10.792a55.262 55.262 0 00-2.33 6.1c-3.127 8.983-5.089 14.654-5.273 15.268-.153.46-.644.521-4.384.521h-4.231l-.828-2.667c-2.7-8.829-4.047-12.815-4.261-12.815-.184 0-3.434 9.872-4.66 14.256l-.307 1.073h-8.492l-1.226-3.526c-.674-1.931-2.146-6.224-3.28-9.5l-2.085-5.978-2.79-.092-2.79-.092v5.978c0 5.886 0 5.978.736 6.837.675.8.92.858 2.759.828l2.023-.061v2.878c0 2.882 0 2.882-.828 3.1a24.248 24.248 0 01-4.231.245c-3.863 0-5.212-.491-6.806-2.453-1.5-1.809-1.686-2.821-1.839-10.332l-.153-6.99h-3.924v19.314h-8.278V13.797l6.07-.061 6.039-.092.092-3.311.092-3.28h8.247v6.745h12.478l2.085 7.756c1.134 4.231 2.207 7.848 2.33 8 .123.123.368-.276.552-.92.184-.674 1.2-4.261 2.238-8l1.931-6.837h4.231c3.1 0 4.261.092 4.353.4.092.276 3.648 12.6 4.354 15.053.092.307.245.429.368.307.122-.153 1.2-3.771 2.33-8l2.115-7.756h16.126v10.73c0 5.917.061 10.73.122 10.73a27.393 27.393 0 002.085-2.023l1.962-2.023 1.625 1.1c2.667 1.809 5.15 2.146 6.959.95a1.534 1.534 0 00.736-1.533c0-1.41-.92-1.962-4.936-3.066-5.365-1.472-7.358-3.464-7.358-7.3a7.006 7.006 0 011.87-5.242c3.219-3.648 10.607-4.323 16.218-1.472 2.606 1.318 2.734 1.42.184 4.016l-2.085 2.177-1.717-1.012a10.792 10.792 0 00-3.8-.981 4.916 4.916 0 00-2.267.38 1.983 1.983 0 00-1.013 1.521c0 .95 1.441 1.84 3.985 2.514 3.955 1.012 5.028 1.5 6.53 2.82 1.318 1.165 1.748 1.644 1.594.889a10.607 10.607 0 01.123-2.606 13.108 13.108 0 0113.52-11.5c7.787.031 12.846 5.488 12.876 13.888v1.747h-9.351c-6.254 0-9.351.092-9.351.307 0 .889 1.38 2.851 2.514 3.587a5.689 5.689 0 003.464.95c2.391.123 3.587-.245 5.089-1.686l.828-.766 2.79 1.747a16.253 16.253 0 012.79 1.962 14.59 14.59 0 01-3.25 3.035 16.668 16.668 0 01-3.342 1.441 16.338 16.338 0 01-11.589-.705 15.287 15.287 0 01-5.518-5.12l-.613-1.226-.49 1.41c-1.073 3.1-2.912 4.721-6.5 5.794a16.983 16.983 0 01-8.767.008zm33.54-16.77a4.835 4.835 0 00-4.445-4.016 6.162 6.162 0 00-4.813 1.533c-1.042.889-1.9 2.729-1.533 3.311.123.184 2.238.307 5.58.307h5.4zM99.147 8.922c-3.893-2.361-2.973-7.7 1.5-8.737a4.843 4.843 0 014.2 1.472 4.781 4.781 0 01.674 5.4 4.979 4.979 0 01-6.374 1.865z"></path></g></svg>