<svg xmlns="http://www.w3.org/2000/svg" width="98.659" height="51.835"><g fill="#718096"><path d="M0 8.239c.686-2.577 2.738-3.567 5.026-4.128a20.358 20.358 0 0114.051 1.455 11.035 11.035 0 011.941 1.23 5.9 5.9 0 012.566 4.173c.163-.561.318-1.125.49-1.684a24.98 24.98 0 012.566-6.044A14.435 14.435 0 0128.503.918a3.509 3.509 0 011.418-.806 1.661 1.661 0 012.2 1.048 7.8 7.8 0 01.484 3.391c-.109 4.338-1.566 8.328-3.231 12.257-.868 2.049-1.817 4.064-2.67 6.119a5.691 5.691 0 00-.225 4.435c.288.72.441.81 1.182.593a8.553 8.553 0 002.777-1.6.68.68 0 00.175-.4c.444-2.508.874-5.019 1.323-7.526a2.406 2.406 0 013.075-1.617.843.843 0 01.519.939 55.97 55.97 0 01-.437 2.907c-.354 2.009-.779 4.007-1.073 6.025a11.736 11.736 0 00.008 2.749c.066.713.522.944 1.193.682a6.038 6.038 0 001.064-.631.377.377 0 00.126-.27 2.09 2.09 0 01.763-1.527 22.943 22.943 0 004.789-6.432 56.572 56.572 0 011.625-2.731 2.446 2.446 0 012.1-1.435 1.633 1.633 0 011.769 2.167 2.6 2.6 0 01-.245.691 6.951 6.951 0 01-.8 1.34 2.791 2.791 0 00-.54 2.711 24.223 24.223 0 01.785 5.826 1.62 1.62 0 00.06.278 22.076 22.076 0 003.26-2.43 33.845 33.845 0 004.165-6.389c.5-.915 1.014-1.826 1.56-2.716a6.034 6.034 0 01.889-1.105 2.038 2.038 0 012.027-.428 1.205 1.205 0 01.963 1.107 2.649 2.649 0 01-.254 1.657 12.786 12.786 0 01-.976 1.665 2.758 2.758 0 00-.463 2.347c.224 1.269.467 2.536.635 3.812.11.833.1 1.681.144 2.52.038.012.077.035.091.025 1.253-.913 2.51-1.82 3.746-2.755a.759.759 0 00.266-.565 50.912 50.912 0 01.154-9.105c.01-.1.01-.208.019-.379-.938-.148-1.858-.3-2.781-.435a.993.993 0 01-1.015-1.033c-.088-.736.068-1.1.734-1.284a11.12 11.12 0 011.858-.28 9.221 9.221 0 011.2-.018c.329.009.48-.093.539-.453a42.268 42.268 0 012.1-8.333A26.305 26.305 0 0167.243 2.1a4.314 4.314 0 011.22-1.288 1.546 1.546 0 012.162.252 5.31 5.31 0 011.237 3.065 13.174 13.174 0 01-.979 6.623c-.412 1.106-.9 2.184-1.356 3.275-.057.137-.109.275-.152.385h3.194c.108 0 .215-.008.323-.009.909-.011 1.068.124 1.069 1.047a3.311 3.311 0 01-.2 1.076 1.115 1.115 0 01-1.089.766c-1.548.1-3.094.238-4.639.39a.8.8 0 00-.525.338 33.725 33.725 0 00-1.316 2.376 2.486 2.486 0 00-.184.975c-.089 2.085-.181 4.171-.22 6.257a5.212 5.212 0 00.269 1.625 1.463 1.463 0 002.286.933 13.71 13.71 0 003.676-3.109c1.508-1.681 1.447-1.7 1.86-4.2.337-2.041.812-4.059 1.242-6.084a1.4 1.4 0 011.444-1.171c.682-.039.883.1.882.774 0 .875-.042 1.749-.057 2.624a10.942 10.942 0 00.077 1.679l.19-.424c.485-1.076.934-2.17 1.473-3.218a7.556 7.556 0 011.037-1.343 1.724 1.724 0 01.512-.385 1.415 1.415 0 011.527-.1 1.4 1.4 0 01.562 1.466c-.158 1.17-.394 2.332-.518 3.505a7.864 7.864 0 00.055 2.009c.1.653.536.836 1.169.628a1.219 1.219 0 00.956-1.065 11.183 11.183 0 012.675-5.821 6.532 6.532 0 016.2-2.277 6.933 6.933 0 013.95 2.392 18.577 18.577 0 011.26 1.586.863.863 0 01.123.584c-.1.649-.245 1.29-.392 2.031a20.747 20.747 0 00-4.436-3.659c-.022.137-.062.225-.042.294.993 3.343.243 6.468-1.2 9.5a10.3 10.3 0 01-2.528 3.424 4.286 4.286 0 01-2.689 1.176 2.4 2.4 0 01-2.131-1.235 6.92 6.92 0 01-.992-3.037l-.049-.343a3.52 3.52 0 01-.442.255 9.008 9.008 0 01-1.372.5 1.75 1.75 0 01-2.1-1.029 12.706 12.706 0 01-.754-2.539c-.148-.693-.159-1.415-.341-2.15-.062.156-.137.308-.183.469-.9 3.157-1.8 6.317-2.713 9.471a14.811 14.811 0 01-.647 1.72 1.165 1.165 0 01-1.2.765 1.111 1.111 0 01-1.055-.946c-.157-.729-.207-1.482-.3-2.224-.011-.086-.025-.172-.048-.339-.23.2-.408.355-.591.507-1.288 1.068-2.568 2.147-3.872 3.194a4.475 4.475 0 01-1.087.6 2.088 2.088 0 01-2.673-.693 18.294 18.294 0 01-1.243-2.443 4.5 4.5 0 01-.178-.551c-.2.195-.359.352-.522.5a14.332 14.332 0 01-7.283 3.914 7.432 7.432 0 01-2.466-.011 3.315 3.315 0 01-2.774-2.678c-.034-.133-.07-.267-.116-.438-.447.284-.875.574-1.319.834a11.22 11.22 0 01-5.929 1.76 7.4 7.4 0 01-2.158-.4 3.649 3.649 0 01-2.356-2.475c-.057-.173-.105-.349-.175-.582-.146.1-.266.178-.38.264a8.29 8.29 0 01-3.641 1.693 3.042 3.042 0 01-3.668-2.228c-.023-.072-.056-.142-.1-.251a8.957 8.957 0 01-1.035.47 18.807 18.807 0 01-2.386.652 2.17 2.17 0 01-2.153-.875 10.727 10.727 0 01-1.782-3.764 25.142 25.142 0 01-.692-10.129c.131-1.1.307-2.186.471-3.341-1.381 2.431-3.615 3.062-6.246 3.038a1.856 1.856 0 00.194.113 6.83 6.83 0 014.432 5.95 7.877 7.877 0 01-.266 3.327 4.911 4.911 0 01-6.026 3.658 12.741 12.741 0 01-4.025-1.551c-1.825-1.072-3.594-2.242-5.383-3.375a1.638 1.638 0 01-.76-1.34 46.214 46.214 0 01-.24-8.459 14.511 14.511 0 011.8-6.321 2.227 2.227 0 013.764.167.367.367 0 01-.021.324 12.6 12.6 0 00-1.714 6.05 47.35 47.35 0 00.14 7.957 1.624 1.624 0 00.887 1.391 13.381 13.381 0 004.457 1.8c2.862.458 4.452-1.245 4.3-4.08a4.092 4.092 0 00-2.478-3.555c-.831-.431-1.7-.779-2.536-1.21a10.468 10.468 0 01-1.512-.956 2.08 2.08 0 01-.8-1.6c-.047-.733.218-1.014.939-.926.532.066 1.061.167 1.587.274a7.713 7.713 0 003.561.03 3.678 3.678 0 002.858-3.127 2.72 2.72 0 00-1.136-2.61 8.377 8.377 0 00-3.354-1.458 21.733 21.733 0 00-9.6-.045 8.82 8.82 0 00-1.394.471 2.712 2.712 0 00-1.351 1.191 8.311 8.311 0 01-1.267 1.683c-.761.757-1.367.549-1.653-.485a1.7 1.7 0 00-.087-.207zm87.149 16.722a9.621 9.621 0 00.393 1.692 1.068 1.068 0 001.866.317 4.447 4.447 0 00.684-.973 14.112 14.112 0 001.488-4.994 6.741 6.741 0 00-.184-3.049.982.982 0 00-1.755-.425 4.7 4.7 0 00-.793 1.006 13.862 13.862 0 00-1.699 6.427zM29.567 4.513l-.185-.1a3.688 3.688 0 00-.7.67 11.53 11.53 0 00-.979 1.869 31.207 31.207 0 00-1.982 11.172.984.984 0 00.052.224l.115.018c.612-1.553 1.258-3.093 1.831-4.66a31.108 31.108 0 001.84-7.157 18.218 18.218 0 00.007-2.035zm22.049 25.814c.228.3.412.566.616.814a6.736 6.736 0 00.645.718 1.347 1.347 0 001.909-.032 1.966 1.966 0 00.532-.941 11.686 11.686 0 00.182-2.373c-.042-.924-.232-1.841-.358-2.76l-.137-.01zm-11.981-.7c.386.482.737.946 1.115 1.387a1.473 1.473 0 001.637.552 1.543 1.543 0 001.041-1.343 11.474 11.474 0 00-.4-4.835zm26.524-15.433c.754.209.762.206 1.024-.407.193-.451.388-.9.571-1.355a28.146 28.146 0 001.821-5.629 4.211 4.211 0 00-.023-1.365c-.034-.212-.27-.535-.435-.548a.906.906 0 00-.637.382 3.65 3.65 0 00-.456.948 52.4 52.4 0 00-1.866 7.972zM31.825 51.835c-.742-.108-1.488-.194-2.226-.326a24.528 24.528 0 01-10.263-4.574 45.719 45.719 0 01-12.5-14.462 1.56 1.56 0 01.306-2.119 1.542 1.542 0 011.957-.024 2.907 2.907 0 01.579.761 45.184 45.184 0 0010.24 12.281 22.959 22.959 0 009.459 4.874 17.922 17.922 0 0012.294-1.705 31.823 31.823 0 007.569-5.44 1.7 1.7 0 011.45-.552 1.452 1.452 0 011.263 1.007 1.51 1.51 0 01-.352 1.665c-4.239 3.986-8.934 7.17-14.787 8.276-.736.139-1.482.226-2.223.337z"></path><path d="M33.029 12.925l.509-3.413c.077-.516.151-1.032.238-1.545.2-1.164 1.077-1.545 2.011-.829q2.028 1.555 4 3.185a1.132 1.132 0 01-.292 2.077q-2.4 1-4.844 1.9c-1.004.357-1.638-.144-1.622-1.375zM68.009 41.206c0-.706.007-1.412 0-2.118 0-.273.092-.385.375-.376.537.016 1.076-.007 1.613.007a2.332 2.332 0 012.326 2.41 2.391 2.391 0 01-2.306 2.589c-.537.022-1.076-.01-1.613.01-.309.011-.4-.113-.4-.4.014-.71.005-1.416.005-2.122zm.567 1.987c.464 0 .877.007 1.289 0a1.985 1.985 0 00.281-3.932 11.645 11.645 0 00-1.57-.012zM82.968 38.623a2.6 2.6 0 01.045 5.191 2.6 2.6 0 01-.045-5.191zm2.011 2.577a1.993 1.993 0 10-1.966 2.084 1.917 1.917 0 001.966-2.084zM78.247 39.227h-2.908v1.719h2.75c.147.382.049.522-.32.515-.691-.015-1.383.008-2.074-.009-.305-.007-.412.108-.394.4a7.285 7.285 0 010 .921c-.022.32.1.435.419.427a41.497 41.497 0 012.259.007c.136 0 .359.133.384.24.069.308-.192.276-.39.276-.938 0-1.875-.011-2.812.007-.325.006-.426-.11-.423-.425q.018-2.1 0-4.192c0-.294.094-.406.4-.4a94.14 94.14 0 002.812 0c.357-.004.423.152.297.514zM87.556 42.675l.461-.247a2.056 2.056 0 002.4.738.818.818 0 00.706-.8.767.767 0 00-.665-.771c-.606-.165-1.231-.262-1.827-.454a1.12 1.12 0 01-.808-1.545 1.369 1.369 0 01.427-.578 2.685 2.685 0 012.9.05 4.485 4.485 0 01.4.427l-.432.27a2.008 2.008 0 00-2.072-.544c-.4.091-.727.3-.751.753s.325.631.692.734.721.146 1.077.237a4.8 4.8 0 01.916.294 1.258 1.258 0 01.251 2.109 2.758 2.758 0 01-3.422-.285c-.079-.1-.143-.22-.253-.388zM60.08 43.059c.569-1.383 1.1-2.653 1.608-3.935.139-.354.321-.494.723-.357a2.37 2.37 0 01-.087.323c-.6 1.442-1.2 2.885-1.824 4.318a.61.61 0 01-.414.307.5.5 0 01-.409-.235c-.659-1.5-1.294-3.012-1.933-4.522a.887.887 0 01-.033-.187c.358-.134.561-.047.708.325.456 1.154.947 2.294 1.425 3.439.059.139.123.274.236.524zM65.249 41.185c0 .719.013 1.439-.012 2.157 0 .128-.164.25-.252.375-.087-.126-.247-.252-.249-.379q-.027-2.134 0-4.269a.436.436 0 01.234-.334c.265-.072.279.141.279.338v2.112z"></path></g></svg>