<svg xmlns="http://www.w3.org/2000/svg" width="175.499" height="39.835" viewBox="0 0 175.499 39.835"><g transform="translate(0 0.035)"><path d="M34.69,6.09V.12H0V39.8H40.27V6.09Z" fill="#718096"></path><path d="M29.3,1.85,6.17,24.41,28.19,5.39Z" fill="#fff"></path><path d="M37.85,11.46,14.72,34.02,34.27,12.49Z" fill="#fff"></path><path d="M29.86,8.41,0,39.8,31.48,10.06Z" fill="#fff"></path><path d="M29.19,11a6.5,6.5,0,1,0,.11-9.18A6.5,6.5,0,0,0,29.19,11Z" fill="#fff"></path><path d="M64.7,26.57a5.73,5.73,0,0,1,0,.62,2.59,2.59,0,0,1-.06.45,1.33,1.33,0,0,1-.12.32,1.73,1.73,0,0,1-.24.3,3,3,0,0,1-.63.43,6.87,6.87,0,0,1-1.14.51,9.25,9.25,0,0,1-1.54.41,10.87,10.87,0,0,1-5.42-.44,7.07,7.07,0,0,1-2.69-1.81,8.26,8.26,0,0,1-1.71-3,13.6,13.6,0,0,1-.59-4.2,13.36,13.36,0,0,1,.65-4.33A9.14,9.14,0,0,1,53,12.64a7.57,7.57,0,0,1,2.81-2,9.34,9.34,0,0,1,3.6-.67,8.555,8.555,0,0,1,1.538.14,8.85,8.85,0,0,1,1.372.34,7,7,0,0,1,1.13.5,3.36,3.36,0,0,1,.7.48,1.43,1.43,0,0,1,.28.33,1.22,1.22,0,0,1,.12.34,3.119,3.119,0,0,1,.06.49,6.727,6.727,0,0,1,0,.69v.76a1.87,1.87,0,0,1-.11.5.79.79,0,0,1-.17.28.36.36,0,0,1-.24.09,1,1,0,0,1-.56-.26c-.23-.17-.52-.36-.88-.58a7.43,7.43,0,0,0-1.29-.57,5.59,5.59,0,0,0-1.79-.26A4.15,4.15,0,0,0,56,15.09a6.2,6.2,0,0,0-1,2.09,10.67,10.67,0,0,0-.32,2.76,10.89,10.89,0,0,0,.34,2.92,5.8,5.8,0,0,0,1,2,4.12,4.12,0,0,0,1.56,1.19,5.13,5.13,0,0,0,2,.39,5.6,5.6,0,0,0,1.79-.25,7.16,7.16,0,0,0,1.29-.54,8.71,8.71,0,0,0,.89-.53,1.08,1.08,0,0,1,.54-.24.43.43,0,0,1,.24.06.45.45,0,0,1,.15.24,1.85,1.85,0,0,1,.08.5,6.732,6.732,0,0,1,.14.89Z" fill="#718096"></path><path d="M83.13,22.34a8.89,8.89,0,0,1-.52,3.15,6.16,6.16,0,0,1-1.52,2.35A6.54,6.54,0,0,1,78.6,29.3a10.44,10.44,0,0,1-3.4.5,10.75,10.75,0,0,1-3.2-.45A6.27,6.27,0,0,1,69.53,28,6.09,6.09,0,0,1,68,25.7a8.91,8.91,0,0,1-.52-3.2V10.86a.43.43,0,0,1,.09-.26.57.57,0,0,1,.31-.19,3.51,3.51,0,0,1,.6-.12,8.12,8.12,0,0,1,1,0,7.63,7.63,0,0,1,.93,0,2.87,2.87,0,0,1,.59.12.65.65,0,0,1,.32.19.39.39,0,0,1,.1.26v11.3a6.08,6.08,0,0,0,.28,2,3.73,3.73,0,0,0,.81,1.39,3.53,3.53,0,0,0,1.25.82,4.74,4.74,0,0,0,1.64.27,4.44,4.44,0,0,0,1.6-.31,3.28,3.28,0,0,0,1.23-.82A3.72,3.72,0,0,0,79,24.18a5.58,5.58,0,0,0,.27-1.8V10.86a.43.43,0,0,1,.09-.26.61.61,0,0,1,.31-.19,3.15,3.15,0,0,1,.6-.12,8.059,8.059,0,0,1,.94,0,7.57,7.57,0,0,1,.92,0,3,3,0,0,1,.59.12.61.61,0,0,1,.31.19.43.43,0,0,1,.09.26Z" fill="#718096"></path><path d="M98.64,27.94a6.73,6.73,0,0,1,0,.72,1.63,1.63,0,0,1-.11.46.54.54,0,0,1-.19.26.35.35,0,0,1-.24.08H88.44a1.067,1.067,0,0,1-1.15-1.22V11.56a1.19,1.19,0,0,1,.33-.94,1.23,1.23,0,0,1,.82-.29H98a.41.41,0,0,1,.24.08.54.54,0,0,1,.18.26,2.18,2.18,0,0,1,.11.47,7.175,7.175,0,0,1,0,.73,6.809,6.809,0,0,1,0,.7,2.18,2.18,0,0,1-.11.47.66.66,0,0,1-.18.26.41.41,0,0,1-.24.08H91.16v4.67H97a.46.46,0,0,1,.25.08.7.7,0,0,1,.18.25,1.63,1.63,0,0,1,.11.46,4.721,4.721,0,0,1,0,.7,4.609,4.609,0,0,1,0,.71,1.48,1.48,0,0,1-.11.45.56.56,0,0,1-.18.25A.45.45,0,0,1,97,21H91.16v5.4h6.9a.35.35,0,0,1,.24.08.54.54,0,0,1,.19.26,1.63,1.63,0,0,1,.11.46,6.89,6.89,0,0,1,.04.74Z" fill="#718096"></path><path d="M112.59,27.84v.74a2.56,2.56,0,0,1-.12.51.55.55,0,0,1-.18.28.39.39,0,0,1-.26.09h-8.77a1.25,1.25,0,0,1-.83-.28,1.21,1.21,0,0,1-.33-.94V10.86a.39.39,0,0,1,.1-.26.65.65,0,0,1,.32-.19,2.87,2.87,0,0,1,.59-.12,8.2,8.2,0,0,1,.94,0,8,8,0,0,1,1,0,2.87,2.87,0,0,1,.59.12.65.65,0,0,1,.32.19.39.39,0,0,1,.1.26v15.4h6a.38.38,0,0,1,.26.08.52.52,0,0,1,.18.26,2.34,2.34,0,0,1,.12.49Q112.59,27.39,112.59,27.84Z" fill="#718096"></path><path d="M131.58,19.68a14.27,14.27,0,0,1-.59,4.25,8.58,8.58,0,0,1-1.76,3.19,7.66,7.66,0,0,1-2.9,2,10.9,10.9,0,0,1-4,.68,11.75,11.75,0,0,1-3.89-.58,6.77,6.77,0,0,1-2.78-1.78A7.66,7.66,0,0,1,114,24.39a15.26,15.26,0,0,1-.56-4.37,13.88,13.88,0,0,1,.59-4.18,8.61,8.61,0,0,1,1.76-3.16,7.75,7.75,0,0,1,2.9-2,10.51,10.51,0,0,1,4-.7,11.57,11.57,0,0,1,3.84.58,6.75,6.75,0,0,1,2.78,1.77,7.69,7.69,0,0,1,1.69,3A14.469,14.469,0,0,1,131.58,19.68Zm-4.09.2a14.451,14.451,0,0,0-.23-2.74,5.88,5.88,0,0,0-.81-2.11,3.77,3.77,0,0,0-1.52-1.36,5.19,5.19,0,0,0-2.36-.48,4.84,4.84,0,0,0-2.4.54,4.38,4.38,0,0,0-1.55,1.44,5.79,5.79,0,0,0-.84,2.1,13.141,13.141,0,0,0-.24,2.55,15,15,0,0,0,.23,2.82,6.23,6.23,0,0,0,.8,2.14,3.71,3.71,0,0,0,1.51,1.35,5.39,5.39,0,0,0,2.38.47,4.84,4.84,0,0,0,2.4-.54,4.23,4.23,0,0,0,1.55-1.45,5.94,5.94,0,0,0,.84-2.13,13.511,13.511,0,0,0,.24-2.6Z" fill="#718096"></path><path d="M150.21,13.3a5.217,5.217,0,0,1,0,.74,2.3,2.3,0,0,1-.1.5.58.58,0,0,1-.16.26.37.37,0,0,1-.23.07,1.47,1.47,0,0,1-.62-.26,9.839,9.839,0,0,0-1.14-.58,12.391,12.391,0,0,0-1.7-.58,8.67,8.67,0,0,0-2.28-.26,6.36,6.36,0,0,0-2.52.48A5.38,5.38,0,0,0,139.5,15a5.82,5.82,0,0,0-1.23,2.11,8.14,8.14,0,0,0-.43,2.73,8.52,8.52,0,0,0,.44,2.89,5.74,5.74,0,0,0,1.22,2.09,5,5,0,0,0,1.88,1.27,6.62,6.62,0,0,0,2.44.43,5.68,5.68,0,0,0,1.29-.15,4.78,4.78,0,0,0,1.18-.44V21.52h-3.63c-.17,0-.31-.11-.41-.33a3,3,0,0,1-.15-1.13,4.412,4.412,0,0,1,0-.69,1.63,1.63,0,0,1,.11-.46.7.7,0,0,1,.18-.25.4.4,0,0,1,.23-.08h6.47a1.08,1.08,0,0,1,.42.08,1,1,0,0,1,.33.25,1.22,1.22,0,0,1,.21.39,1.67,1.67,0,0,1,.08.52v7.62a1.86,1.86,0,0,1-.16.77,1.06,1.06,0,0,1-.64.53c-.32.13-.71.26-1.19.4a16.7,16.7,0,0,1-3,.57c-.52.05-1,.08-1.56.08a12,12,0,0,1-4.11-.66,8.06,8.06,0,0,1-5-4.95,11.79,11.79,0,0,1-.67-4.08,11.93,11.93,0,0,1,.71-4.22,9,9,0,0,1,2-3.17,8.6,8.6,0,0,1,3.14-2,11.66,11.66,0,0,1,4.11-.69,13.07,13.07,0,0,1,2.26.17,12.44,12.44,0,0,1,1.78.41,6.75,6.75,0,0,1,1.27.53,3,3,0,0,1,.7.48,1.21,1.21,0,0,1,.29.59A5.111,5.111,0,0,1,150.21,13.3Z" fill="#718096"></path><path d="M158.07,28.93a.39.39,0,0,1-.1.27.65.65,0,0,1-.32.19,2.87,2.87,0,0,1-.59.12,8.121,8.121,0,0,1-.94,0,8.229,8.229,0,0,1-.94,0,2.84,2.84,0,0,1-.6-.12.65.65,0,0,1-.32-.19.39.39,0,0,1-.1-.27V10.86a.39.39,0,0,1,.1-.26.65.65,0,0,1,.32-.19,3.51,3.51,0,0,1,.6-.12,7.94,7.94,0,0,1,.94,0,7.809,7.809,0,0,1,.94,0,2.87,2.87,0,0,1,.59.12.65.65,0,0,1,.32.19.39.39,0,0,1,.1.26Z" fill="#718096"></path><path d="M175.49,26.57a5.457,5.457,0,0,1,0,.62,2.591,2.591,0,0,1-.06.45,1.329,1.329,0,0,1-.12.32,1.729,1.729,0,0,1-.24.3,3,3,0,0,1-.63.43,6.869,6.869,0,0,1-1.14.51,9.12,9.12,0,0,1-1.53.41,10.13,10.13,0,0,1-1.88.16,10,10,0,0,1-3.55-.6,7.15,7.15,0,0,1-2.69-1.81,8.1,8.1,0,0,1-1.7-3,13.3,13.3,0,0,1-.6-4.2,13.09,13.09,0,0,1,.66-4.33,9,9,0,0,1,1.82-3.18,7.53,7.53,0,0,1,2.8-2,9.34,9.34,0,0,1,3.6-.67,8.48,8.48,0,0,1,1.54.14,8.57,8.57,0,0,1,1.37.34,7,7,0,0,1,1.13.5,3.82,3.82,0,0,1,.71.48,1.63,1.63,0,0,1,.27.33,1.22,1.22,0,0,1,.12.34,4.789,4.789,0,0,1,.07.49v1.45a1.87,1.87,0,0,1-.11.5.67.67,0,0,1-.17.28.36.36,0,0,1-.24.09,1,1,0,0,1-.56-.26c-.23-.17-.52-.36-.88-.58a7.11,7.11,0,0,0-1.29-.57,5.52,5.52,0,0,0-1.78-.26,4.15,4.15,0,0,0-3.56,1.8,6.2,6.2,0,0,0-1,2.09,11.13,11.13,0,0,0-.32,2.76,10.48,10.48,0,0,0,.35,2.92,5.63,5.63,0,0,0,1,2,4.09,4.09,0,0,0,1.55,1.19,5.17,5.17,0,0,0,2.05.39,5.6,5.6,0,0,0,1.79-.25,7.28,7.28,0,0,0,1.3-.54,8.441,8.441,0,0,0,.88-.53,1.12,1.12,0,0,1,.54-.24.43.43,0,0,1,.24.06.45.45,0,0,1,.15.24,2.26,2.26,0,0,1,.09.5C175.48,25.93,175.49,26.21,175.49,26.57Z" fill="#718096"></path></g></svg>