<svg xmlns="http://www.w3.org/2000/svg" width="211.344" height="39.835"><g fill="#718096"><path d="M32.748 19.315a10.589 10.589 0 01-9.672 10.7c-1.032.108-1.375.617-1.6 1.543-1.3 5.318-5.689 8.463-11.44 8.27a10.85 10.85 0 01-.122-21.626c.949-.057 1.187-.471 1.373-1.252A10.871 10.871 0 0124.3 8.603a10.713 10.713 0 018.448 10.712zm-18.273 9.868a3.567 3.567 0 10-3.557 3.573 3.573 3.573 0 003.557-3.573zm11.011-9.777a3.668 3.668 0 00-3.446-3.694 3.716 3.716 0 00-3.675 3.613 3.561 3.561 0 107.121.081z"></path><path d="M24.659 1.444a15.652 15.652 0 011.868 31.192 19.119 19.119 0 01-3.087.107c-.371-.019-.723-.41-1.084-.631.382-.245.759-.691 1.145-.7a12.735 12.735 0 005.819-1.588 12.8 12.8 0 00-5.844-24.038 12.7 12.7 0 00-12.989 10.419c-.049.233-.036.522-.172.685-.2.244-.518.553-.776.544-.2-.006-.537-.444-.553-.706a9.479 9.479 0 01.1-2.139A15.578 15.578 0 0124.659 1.444z"></path><path d="M32.318 0c6.151 1.226 13.028 6.419 14.078 13.357a13.67 13.67 0 01-3.577 11.577 15.171 15.171 0 01-5.346 4.1c3.881-4.875 5.39-10.068 4.311-15.875C40.699 7.315 37.366 3.039 32.318 0zM3.964 19.337C1.276 12.482 6.281 3.547 15.308.637c-1.244 1.123-2.522 2.151-3.654 3.32a18.075 18.075 0 00-4.976 12.448c-.039 1.218-.3 1.95-1.476 2.3a7.966 7.966 0 00-1.238.632zM65.853 24.205a.541.541 0 01.408.182l1.137 1.233a6.244 6.244 0 01-2.322 1.793 8 8 0 01-3.309.622 7.818 7.818 0 01-3.1-.59 6.843 6.843 0 01-2.359-1.642 7.184 7.184 0 01-1.5-2.51 9.42 9.42 0 01-.516-3.18 8.574 8.574 0 01.579-3.2 7.23 7.23 0 014.145-4.14 8.647 8.647 0 013.234-.59 7.635 7.635 0 013.019.552 7.055 7.055 0 012.215 1.464l-.965 1.341a.876.876 0 01-.22.225.623.623 0 01-.37.1.843.843 0 01-.5-.193 6.24 6.24 0 00-.654-.418 5.333 5.333 0 00-1-.418 5.16 5.16 0 00-1.539-.193 5.193 5.193 0 00-2.011.381 4.469 4.469 0 00-1.584 1.089 5.008 5.008 0 00-1.03 1.721 6.611 6.611 0 00-.37 2.279 6.793 6.793 0 00.37 2.327 5.117 5.117 0 001 1.716 4.282 4.282 0 001.491 1.067 4.608 4.608 0 001.845.37 8.036 8.036 0 001.067-.064 4.53 4.53 0 00.879-.2 3.9 3.9 0 00.761-.359 4.758 4.758 0 00.713-.542 1.017 1.017 0 01.225-.156.567.567 0 01.261-.067zm9.963 1.33a3.81 3.81 0 001.5-.279 3.118 3.118 0 001.115-.783 3.419 3.419 0 00.7-1.223 5.035 5.035 0 00.231-1.608v-9.287h2.885v9.288a7.16 7.16 0 01-.445 2.558 5.781 5.781 0 01-1.282 2.027 5.846 5.846 0 01-2.027 1.33 7.77 7.77 0 01-5.362 0 5.681 5.681 0 01-3.3-3.357 7.16 7.16 0 01-.445-2.558v-9.288h2.885v9.277a5.035 5.035 0 00.241 1.609 3.52 3.52 0 00.692 1.228 3.036 3.036 0 001.11.788 3.81 3.81 0 001.502.278zm17.686-10.36a.8.8 0 01-.273.332.687.687 0 01-.37.1.94.94 0 01-.483-.166q-.268-.166-.633-.37a5.167 5.167 0 00-.853-.37 3.584 3.584 0 00-1.153-.166 3.389 3.389 0 00-1.046.145 2.214 2.214 0 00-.751.4 1.607 1.607 0 00-.456.617 2.024 2.024 0 00-.15.788 1.371 1.371 0 00.306.912 2.552 2.552 0 00.81.622 7.515 7.515 0 001.148.461q.643.2 1.314.434a12.652 12.652 0 011.314.536 4.553 4.553 0 011.148.772 3.5 3.5 0 01.81 1.142 3.966 3.966 0 01.306 1.641 5.346 5.346 0 01-.359 1.968 4.54 4.54 0 01-1.051 1.6 4.95 4.95 0 01-1.689 1.072 6.219 6.219 0 01-2.284.391 7.366 7.366 0 01-1.459-.145 7.678 7.678 0 01-1.378-.413 7.2 7.2 0 01-1.233-.643 6.069 6.069 0 01-1.024-.837l.837-1.383a1.068 1.068 0 01.284-.252.694.694 0 01.37-.1 1.023 1.023 0 01.579.22q.311.22.735.488a5.637 5.637 0 001 .488 3.856 3.856 0 001.378.22 2.829 2.829 0 001.909-.584 2.1 2.1 0 00.676-1.678 1.558 1.558 0 00-.306-1 2.468 2.468 0 00-.81-.649 6.046 6.046 0 00-1.148-.445q-.643-.182-1.308-.4a11.283 11.283 0 01-1.308-.515 4.239 4.239 0 01-1.148-.783 3.562 3.562 0 01-.81-1.207 4.6 4.6 0 01-.306-1.786 4.268 4.268 0 011.325-3.078 4.87 4.87 0 011.593-1 5.8 5.8 0 012.156-.375 7.234 7.234 0 012.531.429 5.714 5.714 0 011.973 1.2zm14.124-2.82v2.37h-4.664v13.138h-2.886V14.725h-4.687v-2.37zm15.873 7.758a8.6 8.6 0 01-.568 3.158 7.482 7.482 0 01-1.6 2.515 7.236 7.236 0 01-2.477 1.657 8.95 8.95 0 01-6.419 0 7.281 7.281 0 01-2.488-1.657 7.44 7.44 0 01-1.6-2.515 8.6 8.6 0 01-.571-3.158 8.6 8.6 0 01.568-3.158 7.44 7.44 0 011.6-2.515 7.281 7.281 0 012.488-1.657 8.4 8.4 0 013.212-.6 8.292 8.292 0 013.207.6 7.339 7.339 0 012.477 1.657 7.424 7.424 0 011.6 2.51 8.6 8.6 0 01.571 3.163zm-2.96 0a7.221 7.221 0 00-.338-2.29 4.844 4.844 0 00-.971-1.721 4.179 4.179 0 00-1.539-1.089 5.762 5.762 0 00-4.091 0 4.218 4.218 0 00-1.55 1.083 4.863 4.863 0 00-.981 1.721 7.117 7.117 0 00-.344 2.296 7.117 7.117 0 00.343 2.29 4.807 4.807 0 00.982 1.71 4.248 4.248 0 001.55 1.078 5.762 5.762 0 004.091 0 4.208 4.208 0 001.539-1.078 4.788 4.788 0 00.971-1.716 7.221 7.221 0 00.338-2.284zm13.023 1.315q.182.343.338.713t.306.745q.15-.386.311-.761t.343-.719l4.59-8.59a1.191 1.191 0 01.177-.257.547.547 0 01.2-.139.9.9 0 01.252-.054q.139-.011.332-.011h2.177v15.508h-2.541V17.846q0-.279.016-.611t.048-.676l-4.687 8.794a1.236 1.236 0 01-.418.467 1.082 1.082 0 01-.6.166h-.4a1.082 1.082 0 01-.6-.166 1.236 1.236 0 01-.418-.467l-4.751-8.826q.043.354.059.692t.016.627v10.017h-2.54V12.355h2.177q.193 0 .332.011a.9.9 0 01.252.054.6.6 0 01.209.139 1.082 1.082 0 01.182.257zm20.473-6.253a.8.8 0 01-.273.332.688.688 0 01-.37.1.94.94 0 01-.483-.166q-.268-.166-.633-.37a5.167 5.167 0 00-.853-.37 3.584 3.584 0 00-1.153-.166 3.389 3.389 0 00-1.046.145 2.214 2.214 0 00-.751.4 1.607 1.607 0 00-.456.617 2.024 2.024 0 00-.15.788 1.371 1.371 0 00.306.912 2.552 2.552 0 00.81.622 7.515 7.515 0 001.148.461q.643.2 1.314.434a12.65 12.65 0 011.314.536 4.553 4.553 0 011.148.772 3.5 3.5 0 01.81 1.142 3.967 3.967 0 01.306 1.641 5.346 5.346 0 01-.359 1.968 4.54 4.54 0 01-1.051 1.6 4.95 4.95 0 01-1.689 1.072 6.219 6.219 0 01-2.284.391 7.366 7.366 0 01-1.459-.145 7.678 7.678 0 01-1.378-.413 7.2 7.2 0 01-1.241-.645 6.069 6.069 0 01-1.024-.837l.837-1.383a1.068 1.068 0 01.284-.252.694.694 0 01.37-.1 1.023 1.023 0 01.579.22q.311.22.735.488a5.638 5.638 0 001 .488 3.856 3.856 0 001.378.22 2.829 2.829 0 001.909-.584 2.1 2.1 0 00.676-1.678 1.558 1.558 0 00-.306-1 2.468 2.468 0 00-.81-.649 6.046 6.046 0 00-1.148-.445q-.643-.182-1.308-.4a11.284 11.284 0 01-1.308-.515 4.239 4.239 0 01-1.148-.783 3.562 3.562 0 01-.81-1.207 4.6 4.6 0 01-.306-1.786 4.268 4.268 0 011.324-3.078 4.87 4.87 0 011.593-1 5.8 5.8 0 012.156-.375 7.234 7.234 0 012.527.436 5.714 5.714 0 011.973 1.2zm16.277 12.688h-2.906v-6.778h-7.271v6.778h-2.906V12.355h2.906v6.671h7.271v-6.671h2.906zm18.007-7.75a8.6 8.6 0 01-.568 3.158 7.483 7.483 0 01-1.6 2.515 7.236 7.236 0 01-2.477 1.657 8.95 8.95 0 01-6.419 0 7.281 7.281 0 01-2.488-1.657 7.44 7.44 0 01-1.6-2.515 8.6 8.6 0 01-.571-3.158 8.6 8.6 0 01.568-3.158 7.44 7.44 0 011.6-2.515 7.281 7.281 0 012.488-1.657 8.4 8.4 0 013.212-.6 8.292 8.292 0 013.207.6 7.339 7.339 0 012.477 1.657 7.424 7.424 0 011.6 2.51 8.6 8.6 0 01.571 3.163zm-2.957 0a7.222 7.222 0 00-.338-2.29 4.843 4.843 0 00-.971-1.721 4.179 4.179 0 00-1.539-1.083 5.762 5.762 0 00-4.091 0 4.218 4.218 0 00-1.55 1.083 4.863 4.863 0 00-.981 1.721 7.118 7.118 0 00-.343 2.29 7.118 7.118 0 00.343 2.29 4.807 4.807 0 00.978 1.71 4.248 4.248 0 001.55 1.078 5.762 5.762 0 004.091 0 4.208 4.208 0 001.539-1.078 4.788 4.788 0 00.971-1.716 7.222 7.222 0 00.341-2.284zm3.8-7.754h2.424a1.065 1.065 0 01.627.177.852.852 0 01.338.477l2.638 9.277q.1.343.177.745t.156.853q.086-.45.188-.853t.22-.745l3.038-9.277a1.015 1.015 0 01.338-.45.949.949 0 01.617-.2h.847a1.04 1.04 0 01.622.177.915.915 0 01.343.477l3.024 9.277a12.3 12.3 0 01.408 1.523q.075-.418.156-.8t.166-.719l2.638-9.285a.865.865 0 01.332-.461 1.007 1.007 0 01.622-.193h2.263l-4.815 15.504h-2.606l-3.389-10.6q-.064-.2-.134-.44t-.134-.5q-.064.268-.134.5t-.134.44l-3.421 10.6h-2.606z"></path></g></svg>