<svg xmlns="http://www.w3.org/2000/svg" width="136.832" height="46.458"><g fill="#718096"><path d="M50.358 46.306h-6.7v-14.47c0-9.737.1-14.47.3-14.47.208-.017 1.476-.023 2.593-.023s2.473.006 2.89.023c.435 0 .642.287.792 1.1l.183 1.066.823-.731a6.548 6.548 0 014.755-1.862h.158c3.419-.002 6.248 1.909 7.032 4.756a13.378 13.378 0 01-.578 7.128 7.415 7.415 0 01-3.9 3.473 6.847 6.847 0 01-2.191.332 9.646 9.646 0 01-5.456-1.733l-.7-.487v15.9zm3.285-25.911a3.2 3.2 0 00-2.219.746c-1.371 1.371-1.516 3.828-.949 5.545a3.087 3.087 0 002.259 2.346 4.974 4.974 0 00.668.044 3.453 3.453 0 002.257-.715 4.958 4.958 0 001.381-3.956 4.483 4.483 0 00-1.533-3.51 3.347 3.347 0 00-1.864-.5zm55.048 12.209a15.148 15.148 0 01-3.863-.435c-2.548-.675-3.778-1.86-4.112-3.961l-.183-1.1h2.956c2.623 0 2.924.056 2.924.549 0 .933.99 1.584 2.407 1.584 1.568 0 2.468-.433 2.468-1.188 0-.9-.605-1.194-3.808-1.859-2.923-.633-4.491-1.19-5.412-1.923s-1.225-1.668-1.047-3.225a3.253 3.253 0 011.219-2.376c1.492-1.366 3.112-1.762 7.22-1.762 2.9 0 3.727.113 4.935.67a4.334 4.334 0 012.681 3.381c0 .645-.107.67-2.864.67-2.582 0-2.864-.057-3.016-.609-.154-.615-1.316-1.219-2.346-1.219a2.368 2.368 0 00-1.219.549c-.35.29-.526.435-.532.585s.143.3.441.594a12.438 12.438 0 003.929 1.432c3.953.981 5.426 1.743 6.064 3.138a4.116 4.116 0 01-1.89 5.179 16.1 16.1 0 01-6.951 1.328zm-82-.009h-8.1l.579-.67c.154-.183.588-.66 1.1-1.218l.1-.107.048-.053c.587-.644 1.391-1.527 2.17-2.4a28.644 28.644 0 002.8-3.32 48.6 48.6 0 00-3.534-3.991l-3.545-3.776h8.348l2.071 2.224 2.072 2.194 2.041-2.193 2.041-2.225h3.93c2.65 0 3.613.039 3.738.258a.163.163 0 01-.022.169c-.126.218-1.663 1.941-3.29 3.686a30.09 30.09 0 00-3.107 3.622 21.643 21.643 0 003.077 3.839c1.784 1.973 3.135 3.536 3.107 3.564-.007.032-1.651.091-3.839.122l-3.776.095-1.95-2.133-1.98-2.1-2.041 2.224-2.042 2.189zm62.907-.031a18.227 18.227 0 01-4.6-.457 6.708 6.708 0 01-4.144-3.99 15.18 15.18 0 010-6.215 6.608 6.608 0 013.869-4.021c1.754-.815 2.277-.912 5.057-.942h.3c3.6 0 5.2.57 6.864 2.438a7.767 7.767 0 011.856 5.418v1.4h-5.944c-3.72 0-5.94.114-5.94.3a5.2 5.2 0 00.427 1.341 2.816 2.816 0 002.685 1.6 2.99 2.99 0 002.433-1.144c.645-.859.743-.883 3.5-.883 1.735 0 2.575.038 2.786.386.154.253-.01.667-.411 1.442a6.607 6.607 0 01-4.082 2.864 19.111 19.111 0 01-4.661.466zm.429-12.46c-1.288 0-1.727.142-2.346.761a2.509 2.509 0 00-.766 1.53v.761h3.016a10.476 10.476 0 003.2-.274c.268-.387-.352-1.878-.975-2.346a4.3 4.3 0 00-2.133-.429zm-81.74 12.45a10.478 10.478 0 01-3.869-.5C1.341 30.953.061 28.914 0 25.012c-.03-3.902 1.52-6.217 5.027-7.494a15.82 15.82 0 014.716-.587 12.293 12.293 0 014.21.556 6.788 6.788 0 013.069 2.536 8.659 8.659 0 011.287 4.136l.152 2.036h-6c-5.078 0-5.971.064-5.971.427a3.036 3.036 0 003.187 2.818 2.843 2.843 0 002.358-1.142c.644-.859.742-.883 3.5-.883 2.542 0 2.833.06 2.833.579 0 1.118-1.375 2.637-3.2 3.534-1.647.838-2.057.913-5.484 1.005-.568.015-1.013.021-1.397.021zm1.338-12.447c-1.312 0-1.756.142-2.376.761a2.513 2.513 0 00-.761 1.527v.792l3.137-.092 3.108-.091-.092-.761c-.213-1.438-1.2-2.136-3.016-2.136zm117.586 12.4a15.291 15.291 0 01-3.494-.3c-2-.574-2.948-1.292-3.626-2.742-.47-1.038-.727-1.64-.52-1.96.238-.369 1.088-.386 2.836-.386 2.623 0 2.893.054 2.893.579 0 .933 1.527 1.583 2.9 1.583a2.386 2.386 0 001.795-.608c.362-.4.486-.7.4-.952-.186-.564-1.356-.985-4.637-1.668a11.2 11.2 0 01-4.795-1.892 3.077 3.077 0 01-1.024-3.1 4.262 4.262 0 012.429-3.166 12.193 12.193 0 015.613-1.1c.474 0 .966.015 1.462.046 3.866.213 6 1.419 6.52 3.686l.244 1.1h-2.955c-2.778 0-2.959-.038-3.23-.67a2.3 2.3 0 00-2.115-1.058c-.842 0-1.692.337-1.692 1.089 0 .822.479 1.041 4.661 2.133a21.115 21.115 0 014.448 1.554 3.589 3.589 0 011.462 3.534c-.274 1.675-1 2.528-2.894 3.381-1.461.684-2.289.824-5.209.883-.514.022-1.009.033-1.471.033zM72.9 32.295h-6.7v-14.93h6.367l.214 1.066.182 1.064.61-.762a5.308 5.308 0 013.685-1.825l1.433-.213v5.088l-1.646.061c-2.095.06-3.376.716-3.808 1.95a24.417 24.417 0 00-.337 4.721v3.78z"></path><path d="M43.807 32.445c0-7.708.03-10.815.061-6.915a536.6 536.6 0 010 14.014c-.031 3.807-.061.608-.061-7.099zM50.114 38.325c-.061-7.616.061-8.9.731-7.8.122.213.091.244-.122.122-.274-.152-.366 1.919-.457 7.8l-.061 8.012zM22.635 32.384c3.321-.092 4.2-.213 4.722-.64.609-.518.609-.518.03.183-.548.64-.762.67-4.722.609l-4.143-.061zM32.78 30.343l-1.95-2.1-.823.731-.823.731.67-.762.67-.762-.762-.853c-1.005-1.188-1.127-3.534-.213-4.539.274-.3.365-.548.213-.548s-.03-.152.274-.335c.548-.3.518-.4-.3-1.31l-.853-.944 1.005.883.975.914 2.01-2.193 2.007-2.196h3.93c3.29 0 3.93.061 3.717.426-.122.213-1.615 1.889-3.29 3.686a30.455 30.455 0 00-3.107 3.625 21.945 21.945 0 003.077 3.839c2.254 2.468 3.046 3.534 2.681 3.564-.274.03-2.01.122-3.839.152l-3.321.091zM66.321 25.285c0-3.93.061-5.545.091-3.564.061 1.95.061 5.179 0 7.159-.03 1.95-.091.335-.091-3.595zM72.719 28.942c0-1.919.031-2.712.092-1.737a33.808 33.808 0 010 3.5c-.062.948-.092.156-.092-1.763zM19.893 30.983a8.982 8.982 0 011.005-1.005l.975-.884-.883 1.005c-.853.914-1.097 1.127-1.097.884zM9.474 25.987c1.736-.061 4.478-.061 6.093 0 1.615.031.213.091-3.138.091s-4.691-.061-2.955-.091zM89.901 25.987c1.736-.061 4.478-.061 6.093 0 1.615.031.213.091-3.138.091s-4.692-.061-2.955-.091zM19.1 17.913l-.883-1.005 1.005.883c.914.853 1.127 1.1.883 1.1a10.541 10.541 0 01-1.005-.978z"></path><g><path d="M43.807 32.749c0-7.525.03-10.571.061-6.763.061 3.839.061 9.993 0 13.709-.031 3.716-.061.609-.061-6.946zM50.174 38.689c0-4.265.061-6.032.091-3.869a164.89 164.89 0 010 7.768c-.03 2.133-.091.366-.091-3.899zM24.005 32.383c2.011-.092 2.894-.244 3.351-.64.609-.518.609-.518.03.183-.548.609-.823.67-3.351.609l-2.772-.061zM32.81 30.373c-1.188-1.31-2.072-2.011-2.285-1.858-.213.122-.274.091-.152-.122.091-.183-.152-.822-.579-1.462a3.282 3.282 0 010-4.2c.427-.64.67-1.279.579-1.462-.152-.213-.061-.244.152-.091.244.152 1.066-.518 2.376-1.95l1.98-2.163h3.93c3.29 0 3.93.061 3.717.426-.122.213-1.615 1.889-3.29 3.686a30.462 30.462 0 00-3.108 3.625 21.952 21.952 0 003.077 3.839c2.254 2.468 3.046 3.534 2.681 3.564-.274.03-2.011.122-3.839.152l-3.321.091zM66.321 25.895c0-3.595.061-5.088.091-3.26.061 1.8.061 4.722 0 6.55-.03 1.797-.091.305-.091-3.29zM72.718 29.245c0-1.767.031-2.468.092-1.584a28.186 28.186 0 010 3.2c-.062.852-.092.152-.092-1.616zM9.321 25.986a73.294 73.294 0 015.179 0c1.371.031.183.091-2.681.091-2.833 0-3.96-.061-2.498-.091zM89.9 25.986a86.81 86.81 0 015.636 0c1.523.031.274.091-2.833.091s-4.355-.061-2.803-.091zM19.587 14.013a9.052 9.052 0 011.371-.274c.487-.031.518.03.152.274a3.2 3.2 0 01-1.371.274c-.883-.031-.883-.031-.152-.274zM20.745 9.322c-.487-.152-.853-.427-.853-.579 0-.3 1.523 0 1.919.4.427.392-.183.514-1.066.179zM38.902 7.154c-.274-.64 1.432-2.133 1.767-1.584.366.579.3.731-.67 1.432-.823.583-.945.614-1.097.152zM21.72 6.701c-.427-.3-.67-.67-.548-.762.244-.244 1.767.731 1.767 1.1 0 .424-.396.302-1.219-.338zM25.132 3.198c-.426-.914-.457-1.371-.122-1.371.152 0 .487.487.762 1.066.4.823.426 1.066.091 1.066-.211.001-.548-.332-.731-.761zM27.508 2.224c-.183-.457-.4-1.036-.457-1.219-.061-.213.03-.4.274-.4.457 0 1.158 2.072.762 2.315-.154.096-.426-.211-.579-.696zM29.458 1.37c-.213-1.158-.061-1.554.457-1.219.427.244.457 2.285.031 2.285-.153 0-.366-.487-.488-1.066z"></path></g><path d="M136.267 46.306H52.489V36.253h83.778v10.052zM59.283 43.26c1.572 0 1.957.1 2.284.61a1.594 1.594 0 001.224.639c.233 0 .361-.086.361-.243a24.952 24.952 0 00-1.493-2.986c-1.07-1.994-1.643-2.883-2.229-2.883s-1.2.936-2.31 3.035c-1.062 2.042-1.42 2.73-1.29 2.945.058.095.2.1.437.1a.892.892 0 00.945-.609c.152-.515.462-.608 2.071-.608zm28.85-4.874c-.575 0-.609.171-.609 3.046v3.046h2.924c1.961 0 2.6-.033 2.768-.239a.311.311 0 00.035-.279c-.093-.466-.5-.58-2.315-.64l-2.193-.092v-2.405c-.001-2.209-.054-2.437-.611-2.437zm24.676 0c-.575 0-.609.171-.609 3.046s.034 3.047.609 3.047.61-.171.61-3.047-.03-3.046-.61-3.046zm-7.036 0c-2.291 0-3.035.036-3.22.259a.324.324 0 00-.04.289c.063.373.469.549 1.4.61l1.279.091v2.436c0 2.182.057 2.407.609 2.407s.609-.228.609-2.437v-2.437h1.371c1.166 0 1.37-.091 1.37-.609.002-.575-.188-.609-3.379-.609zm-10.922.043a1.529 1.529 0 00-.228.018l-.823.091 1.431 1.615c1.258 1.411 1.432 1.77 1.432 2.954 0 1.166.091 1.371.609 1.371s.61-.208.61-1.31c0-1.16.189-1.53 1.554-3.047.979-1.1 1.313-1.486 1.244-1.641-.039-.088-.217-.095-.483-.095a2.85 2.85 0 00-1.8 1.1l-1.008 1.094-.97-1.126c-.674-.757-1.085-1.025-1.569-1.025zM80.364 43.26c1.661 0 1.98.091 2.132.609a.894.894 0 00.945.61c.417 0 .732-.066.732-.152 0-.059-.668-1.369-1.554-3.047-.961-1.808-1.589-2.906-2.2-2.906-.58 0-1.155.9-2.306 3.058-1.075 2.059-1.389 2.735-1.258 2.953.041.067.122.094.282.094a1.216 1.216 0 00.945-.61c.269-.516.632-.609 2.282-.609zm-12.491-2.864l2.253 2.04a12.639 12.639 0 002.683 2.042c.3 0 .4-.712.4-3.047 0-2.9-.03-3.046-.64-3.046a.538.538 0 00-.413.108c-.172.181-.165.657-.1 1.871a7.969 7.969 0 01-.049 1.974.018.018 0 01-.013.006c-.11-.037-1.478-1.256-2.284-1.98-1.284-1.171-2.155-1.94-2.621-1.94-.531 0-.587.916-.587 3.007 0 2.876.034 3.047.609 3.047.509 0 .577-.21.67-2.041l.091-2.04zm53.069-2.01a6.792 6.792 0 00-2.893.367 6.271 6.271 0 00-.365 2.681 6.275 6.275 0 00.365 2.679 8.67 8.67 0 003.123.365 5.787 5.787 0 002.178-.243 1.751 1.751 0 00.625-1.366.623.623 0 00-.229-.553 1.379 1.379 0 00-.706-.264c-.306 0-.482.218-.482.6 0 .541-.2.609-1.828.609h-1.828v-3.657h1.828c1.452 0 1.828.094 1.828.457 0 .286.369.456.725.456a.7.7 0 00.615-.274 1.389 1.389 0 00-.123-1.066c-.273-.762-.379-.791-2.832-.791zm7.57 4.3a.643.643 0 00-.259.055.886.886 0 00-.51.841.676.676 0 00.388.682 8.184 8.184 0 002.26.2 10.3 10.3 0 003.378-.351 2.484 2.484 0 00.365-1.46c0-1.555-.419-1.828-2.8-1.828-1.666 0-2.136-.1-2.284-.487a.58.58 0 01.042-.55c.232-.327.916-.486 2.09-.486.977 0 1.49.145 1.615.457.09.2.187.282.326.282a.949.949 0 00.435-.16c.244-.13.36-.235.4-.362a.7.7 0 00-.125-.521c-.277-.524-.683-.609-2.894-.609-1.592 0-2.655.128-2.772.335a5.3 5.3 0 000 2.955 9.336 9.336 0 002.5.3c1.96.121 2.255.212 2.255.7 0 .514-.219.578-1.95.578-1.277 0-2.012-.13-2.071-.365a.38.38 0 00-.388-.206zm-48.148-.644c-.608 0-1.066-.066-1.066-.152 0-.064.267-.662.518-1.219l.518-1.1.549 1.006a8.761 8.761 0 01.548 1.249c-.001.12-.479.216-1.067.216zm-21.021 0c-.6 0-.876-.026-.967-.179-.11-.186.07-.561.48-1.314l.548-1.006.485 1.067a8.248 8.248 0 01.52 1.248c0 .087-.456.184-1.066.184z"></path><g><path d="M32.596 30.16c-2.772-2.925-3.564-4.113-3.564-5.3.03-1.31.427-1.95 3.321-5.057l2.529-2.742h3.96c3.26 0 3.9.061 3.686.426-.122.213-1.615 1.889-3.29 3.686a30.462 30.462 0 00-3.108 3.625 21.952 21.952 0 003.077 3.839c2.254 2.468 3.046 3.534 2.681 3.564-.274.03-2.011.122-3.839.152l-3.29.091zM29.001 15.08a3.821 3.821 0 011.767-7.159 3.539 3.539 0 013.443 3.473 6.243 6.243 0 01-.457 2.315 3.539 3.539 0 01-4.753 1.371zM40.304 14.013c0-.518.213-.609 1.219-.609s1.219.091 1.219.609-.213.609-1.219.609-1.219-.091-1.219-.609zM40.395 11.699c-.3-.853 1.706-1.493 2.224-.7.244.427-.122.762-1.188 1.005-.609.152-.883.06-1.036-.305zM19.283 11.272c0-.152.427-.213 1.005-.091 1.371.244 1.432.4.122.4-.609-.004-1.127-.126-1.127-.309zM39.877 9.292c-.183-.518 1.462-1.523 1.95-1.219.548.335.3.975-.457 1.31-1.036.484-1.28.457-1.493-.091zM20.44 9.231c-.3-.061-.548-.274-.548-.457s.3-.244.7-.122a5.867 5.867 0 00.914.183c.122 0 .213.152.213.3.001.309-.365.335-1.279.096zM21.721 6.672c-.548-.4-.609-.579-.274-.579.64 0 1.645.762 1.31 1.005-.148.095-.64-.091-1.036-.426zM38.781 6.885c0-.67 1.523-1.523 1.95-1.1.244.274.152.487-.4.944-.819.674-1.55.766-1.55.156zM37.684 5.362c-.152-.366.061-.792.579-1.34.731-.7.823-.731 1.005-.244.152.366-.061.792-.579 1.34-.731.701-.822.732-1.005.244zM23.152 4.934c-.853-.914-.609-1.493.244-.67.762.731.975 1.219.518 1.219a1.623 1.623 0 01-.762-.549zM25.132 3.199c-.426-.944-.457-1.371-.122-1.371.274 0 .975 1.34.975 1.828 0 .579-.518.305-.853-.457zM35.734 3.808a4.364 4.364 0 011.188-1.98c.518 0 .579.426.152 1.249-.365.731-1.34 1.251-1.34.731zM27.509 2.285c-.366-.975-.4-1.676-.061-1.676.152 0 .4.487.579 1.066.396 1.249-.061 1.798-.518.61zM34.028 2.071c.214-1.127.609-1.615 1.036-1.34.426.244-.3 2.315-.823 2.315-.304 0-.365-.244-.213-.975zM29.519 1.706c-.213-.853.061-1.767.457-1.523.366.213.366 2.254 0 2.254-.152 0-.365-.335-.457-.731zM31.773 1.219c0-.883.122-1.219.457-1.219.487 0 .609 1.066.274 1.95s-.731.487-.731-.731z"></path></g></g></svg>