<svg xmlns="http://www.w3.org/2000/svg" width="87.134" height="49.456"><defs><clipPath id="a"><path fill="none" d="M0 0h86.134v22.084H0z"></path></clipPath></defs><path d="M2.916 48.639V35.847H.5v-1.039h2.416v-2.089c0-2.4.567-4.911 3.59-4.911a4.435 4.435 0 011.32.2v1.12a5.637 5.637 0 00-1.412-.238c-1.7 0-2.389 1.135-2.389 3.775v2.143H7.1v1.039H4.025v12.792zm18.811-3.96v3.96h-1.083c0-.3-.079-1.531-.079-2.733a4.409 4.409 0 01-4.581 3.023c-1.98 0-4.62-.818-4.62-5.069v-9.052h1.109v8.92c0 2.1.805 4.132 3.657 4.132s4.462-1.808 4.462-5.8v-7.252h1.135zm6.68 3.96V28.085h1.135v20.554zm7.815 0V28.085h1.122v20.554zm8.488 0V35.847h-2.4v-1.039h2.4v-2.089c0-2.4.58-4.911 3.59-4.911a4.3 4.3 0 011.32.2v1.12a5.465 5.465 0 00-1.412-.238c-1.69 0-2.376 1.135-2.376 3.775v2.143h3.023v1.039h-3.024v12.792zm13.2-.726a4.224 4.224 0 004.264-2.825h1.135a5.28 5.28 0 01-5.439 3.841c-4.224 0-5.8-3.683-5.8-7.168 0-4.105 2.1-7.313 5.927-7.313 4.277 0 5.623 3.7 5.623 6.323v.99H53.21c.013 3.828 1.927 6.152 4.686 6.152zm4.633-7.115c0-2.931-1.571-5.28-4.515-5.28s-4.435 2.165-4.686 5.28zm11.59 7.11a4.211 4.211 0 004.251-2.825h1.135a5.28 5.28 0 01-5.491 3.841c-4.211 0-5.8-3.683-5.8-7.168 0-4.105 2.1-7.313 5.927-7.313 4.277 0 5.623 3.7 5.623 6.323v.99h-10.41c.013 3.828 1.927 6.152 4.7 6.152zm4.567-7.111c0-2.931-1.571-5.28-4.515-5.28s-4.421 2.165-4.685 5.28zm6.825 7.841V28.085h1.109v20.554z" fill="#718096" stroke="#718096"></path><g clip-path="url(#a)" fill="#718096" transform="translate(.5)"><path d="M46.024 2.736a.689.689 0 00-.257.049 1.136 1.136 0 00.172 1.064.4.4 0 01.075.206.661.661 0 000-1.322M49.971 3.438a.818.818 0 11-.818-.771.8.8 0 01.818.771M53.236 3.397a.946.946 0 11-.945-.9.946.946 0 01.945.9M56.416 3.438a1.075 1.075 0 11-1.075-1.075 1.075 1.075 0 011.075 1.075M58.09 4.164a5.236 5.236 0 01-.555-.309.928.928 0 00.638.514.435.435 0 01-.082-.2M48.027 6.559a.447.447 0 01.2.046.641.641 0 00.021-.157.674.674 0 00-.684-.661.689.689 0 00-.419.139 7.353 7.353 0 00.866.635h.015M51.519 6.49a.818.818 0 11-.818-.771.8.8 0 01.818.771M54.779 6.448a.946.946 0 11-.946-.908.928.928 0 01.946.908M57.964 6.49a1.075 1.075 0 11-1.075-1.028 1.054 1.054 0 011.075 1.028M60.888 6.531a.946.946 0 11-.946-.908.928.928 0 01.946.908M63.508 7.04c-.4-.129-.7-.424-1.088-.55a.414.414 0 01-.219-.157.775.775 0 00.792.941.825.825 0 00.566-.221L63.5 7.04M72.137 7.083a.7.7 0 00.615-.121 2.921 2.921 0 01-.615.121M76.017 5.914a.352.352 0 01-.257.185 3.466 3.466 0 00-.987.291.573.573 0 01-.134.039v.057a.818.818 0 001.633 0 .771.771 0 00-.257-.571M79.542 6.448a.946.946 0 11-.946-.908.928.928 0 01.946.908M82.722 6.49a1.075 1.075 0 11-1.075-1.028 1.054 1.054 0 011.075 1.028M85.321 7.2a4.629 4.629 0 00-1.124-1.43.9.9 0 00-.445.771.928.928 0 00.946.908.957.957 0 00.627-.231v-.015M52.238 8.708a1.947 1.947 0 01.728.7.8.8 0 00-.8-.735l.067.033M56.245 9.418a.946.946 0 11-.944-.908.926.926 0 01.944.908M59.425 9.459a1.075 1.075 0 11-1.075-1.028 1.054 1.054 0 011.075 1.028M62.349 9.513a.946.946 0 11-.946-.908.926.926 0 01.946.908M65.272 9.459a.818.818 0 11-.818-.771.8.8 0 01.818.771M68.195 9.513a.689.689 0 11-.689-.661.676.676 0 01.689.661M71.203 9.459a.561.561 0 11-.561-.537.55.55 0 01.561.537M74.469 9.418a.689.689 0 11-.676-.661.674.674 0 01.687.661M77.737 9.459a.818.818 0 11-.818-.771.8.8 0 01.818.771M80.992 9.418a.946.946 0 11-.946-.908.926.926 0 01.946.908M84.18 9.459a1.075 1.075 0 11-1.075-1.028 1.054 1.054 0 011.075 1.028M85.993 10.285v-.054a.4.4 0 01.059-.208l.067-.085.015-.013c-.046-.411-.041-.828-.126-1.234v-.07a.9.9 0 00.015 1.8.329.329 0 01-.023-.123M57.965 12.388a.946.946 0 11-.946-.908.928.928 0 01.946.908M61.143 12.429a1.075 1.075 0 11-1.075-1.028 1.052 1.052 0 011.075 1.028M64.069 12.471a.946.946 0 11-.946-.9.928.928 0 01.946.908M66.992 12.429a.818.818 0 11-.818-.784.8.8 0 01.818.784M69.913 12.47a.689.689 0 11-.686-.661.674.674 0 01.686.661M72.921 12.429a.558.558 0 11-.558-.537.548.548 0 01.558.537M76.189 12.387a.689.689 0 11-.686-.661.674.674 0 01.687.661M79.449 12.429a.818.818 0 11-.815-.784.8.8 0 01.815.784M82.723 12.388a.946.946 0 11-.946-.908.928.928 0 01.946.908M84.313 12.941a2.155 2.155 0 001.118-1.185.55.55 0 01.067-.129 1.108 1.108 0 00-.674-.229 1.054 1.054 0 00-1.075 1.028 1.01 1.01 0 00.368.771.4.4 0 01.2-.257M49.623 15.399a.558.558 0 11-.558-.535.548.548 0 01.558.535M51.606 15.427a.689.689 0 001.373-.059.608.608 0 000-.1 1.851 1.851 0 01-1.365.157M56.244 15.399a.818.818 0 11-.815-.771.8.8 0 01.815.771M59.513 15.358a.946.946 0 11-.946-.908.928.928 0 01.946.908M62.693 15.399a1.075 1.075 0 11-1.075-1.028 1.054 1.054 0 011.075 1.028M65.617 15.44a.946.946 0 11-.946-.908.928.928 0 01.946.908M68.537 15.399a.818.818 0 11-.815-.771.8.8 0 01.815.771M71.461 15.439a.689.689 0 11-.686-.661.674.674 0 01.686.661M74.469 15.399a.558.558 0 11-.558-.535.548.548 0 01.558.535M76.451 15.538a8.759 8.759 0 011.286-.291.693.693 0 00-1.373.111.591.591 0 00.033.2l.057-.02M47.359.888a.355.355 0 01-.175.113.828.828 0 00.514.172.8.8 0 00.815-.771.771.771 0 00-.057-.291A2.042 2.042 0 0047.363.9M51.681.591c-.144-.53-.92-.447-1.363-.411a.352.352 0 01-.365-.18.852.852 0 00-.072.345.928.928 0 00.946.908.944.944 0 00.882-.581.3.3 0 01-.028-.08M42.424 18.664a.856.856 0 00.067-.337.928.928 0 00-.946-.908.967.967 0 00-.71.309 9.587 9.587 0 011.589.936M45.414 18.286a.818.818 0 11-.818-.784.8.8 0 01.818.784M48.338 18.327a.689.689 0 11-.689-.661.676.676 0 01.689.661M51.347 18.287a.561.561 0 11-.562-.545.548.548 0 01.561.537M54.612 18.255a.689.689 0 11-.687-.661.674.674 0 01.687.661M57.88 18.286a.818.818 0 11-.818-.784.8.8 0 01.818.784M61.146 18.255a.946.946 0 11-.946-.908.928.928 0 01.946.908M62.711 19.171a6.344 6.344 0 011.365-.229 1 1 0 00.258-.661 1.075 1.075 0 10-2.15 0 1.028 1.028 0 00.535.89M66.303 17.419a.928.928 0 00-.946.908.871.871 0 00.021.185 4.841 4.841 0 01.771-.224.452.452 0 01.378.075q.3-.1.6-.185a.4.4 0 01.121-.015.933.933 0 00-.928-.743M49.803 21.367a.485.485 0 01.08.044v-.032a.674.674 0 00-.686-.661.692.692 0 00-.627.391 5.022 5.022 0 011.234.257M52.745 21.701a.514.514 0 00.149-.363.561.561 0 00-1.118 0 .514.514 0 00.1.3 7.088 7.088 0 00.872.059M55.661 21.084a4.055 4.055 0 01.383-.147.7.7 0 00-.571-.3.676.676 0 00-.689.661.635.635 0 00.015.139l.049-.013.635-.144a.378.378 0 01.177-.2M31.712 7.2a.491.491 0 01-.221.1 1.1 1.1 0 00.64.206 1.052 1.052 0 001.075-1.028.879.879 0 000-.118 2.94 2.94 0 00-1.486.838M34.559 6.505a.514.514 0 01-.3-.149.8.8 0 00-.018.175.926.926 0 00.944.908.946.946 0 00.825-.465 4.283 4.283 0 00-1.45-.468M30.543 8.51h-.108a3.209 3.209 0 00-.159 1.7.338.338 0 010 .072.964.964 0 00.257.036.908.908 0 100-1.815M34.669 9.459a1.075 1.075 0 11-1.075-1.028 1.054 1.054 0 011.075 1.028M37.591 9.513a.946.946 0 11-.944-.908.926.926 0 01.944.908M39.261 8.801a.771.771 0 00-.375.658.82.82 0 001.63.077c-.388-.285-.861-.45-1.255-.735M32.263 11.48a.933.933 0 00-.941.81 3.484 3.484 0 001.286.609.409.409 0 01.257.19.9.9 0 00.347-.7.928.928 0 00-.946-.908M36.387 12.429a1.075 1.075 0 11-1.075-1.028 1.052 1.052 0 011.075 1.028M39.311 12.471a.946.946 0 11-.946-.9.926.926 0 01.946.908M42.234 12.429a.818.818 0 11-.818-.784.8.8 0 01.818.784M45.158 12.47a.689.689 0 11-.676-.661.676.676 0 01.689.661M35.953 15.039a4.965 4.965 0 001.766.977.99.99 0 00.216-.617 1.052 1.052 0 00-1.075-1.028 1.077 1.077 0 00-.985.62.311.311 0 01.077.051M40.859 15.44a.946.946 0 11-.946-.908.928.928 0 01.946.908M43.782 15.399a.818.818 0 11-.818-.771.8.8 0 01.818.771M46.703 15.439a.689.689 0 11-.679-.661.674.674 0 01.687.661"></path><path d="M49.714 15.398a.561.561 0 11-.561-.535.55.55 0 01.561.535"></path><path d="M41.995 2.921l5.888 3.263 5.891 3.27a3.11 3.11 0 011.244 4.456c-1.666 2.949-4.644 1.2-4.644 1.2l-5.893-3.273-5.888-3.255-2.944-1.628s-2.98-1.768-4.647 1.184a3.115 3.115 0 001.244 4.461l5.914 3.389s3.028 1.676 1.242 4.456a3.464 3.464 0 01-4.644 1.2l-8.83-4.89-2.936-1.648s-2.862-1.586-7.59-.437l-4.726 1.149-4.564 1.242s-4.61 1.316-5.891-3.265 3.4-5.657 3.4-5.657L31.458.854s4.644-1.2 10.544 2.057"></path></g></svg>