<svg xmlns="http://www.w3.org/2000/svg" width="152.17" height="39.835"><g fill="#718096"><path d="M40.498 0h-5.975a.341.341 0 00-.133.664 11.613 11.613 0 014.249 2.921A10.481 10.481 0 0141.295 7.7c.266.4.8.266.8-.133V1.593A1.534 1.534 0 0040.498 0M41.428 17.262A10.753 10.753 0 0131.6 23.5h-.13a9.011 9.011 0 01-8.9-9.029 7.681 7.681 0 016.241-7.436.607.607 0 01.664.531v2.523c0 .266-.133.531-.4.531a3.863 3.863 0 00-2.788 3.718 5.3 5.3 0 005.179 5.311 7.112 7.112 0 007.17-7.038 9.563 9.563 0 00-2.656-6.639 9.384 9.384 0 00-6.506-2.788 12.244 12.244 0 00-12.349 11.95 15.49 15.49 0 0013.946 15.672.571.571 0 01.531.531v2.523c0 .4-.266.664-.664.531A19.467 19.467 0 0113.411 15 16.082 16.082 0 0123.635.4c.531.133.531-.4 0-.4H1.593A1.534 1.534 0 000 1.593v36.649a1.534 1.534 0 001.593 1.593h16.731a.341.341 0 00.133-.664 33.388 33.388 0 01-5.444-4.249 28.464 28.464 0 01-8.1-19.522.711.711 0 01.664-.664H8.1a.627.627 0 01.664.664 24.019 24.019 0 007.038 17c4.515 4.515 11.685 7.436 17.262 7.436H40.5a1.534 1.534 0 001.593-1.593V17.395a.341.341 0 00-.664-.133M75.819 31.735h-.266a3.856 3.856 0 01-1.859-.4 3.766 3.766 0 01-1.328-1.2 7.154 7.154 0 01-.929-1.726 9.95 9.95 0 01-.664-2.125 9.219 9.219 0 00-.664-1.726 19.82 19.82 0 00-.8-1.726 4.151 4.151 0 00-1.2-1.461 6.672 6.672 0 00-1.593-1.062 2.891 2.891 0 001.062-.664 5.775 5.775 0 00.8-.929 6.939 6.939 0 00.929-1.992c.266-.8.531-1.461.8-2.257a9.154 9.154 0 01.929-1.992 3.6 3.6 0 011.331-1.454 1.854 1.854 0 011.2-.4 3.676 3.676 0 011.2-.133c.266 0 .4 0 .531-.133.133 0 .133-.266.133-.531V7.705c0-.266 0-.4-.133-.4s-.266-.133-.531-.133a16.929 16.929 0 00-2.656.133 11.685 11.685 0 00-1.992.664 4.689 4.689 0 00-1.859 1.726 10.055 10.055 0 00-1.2 2.39 21.077 21.077 0 00-.929 2.656 9.963 9.963 0 01-1.062 2.39 2.96 2.96 0 01-1.2 1.328 3.517 3.517 0 01-1.859.4h-1.594l.133-11.287c0-.266 0-.4-.133-.531s-.266-.133-.531-.133h-5.708a.352.352 0 00-.4.4v1.854c0 .133.133.133.266.133l2.39.8L56.3 33.73c0 .266 0 .4.133.4 0 .133.266.133.4.133h2.921c.266 0 .4 0 .4-.133s.133-.266.133-.4l.129-11.825h1.861a4.434 4.434 0 011.992.4 2.906 2.906 0 011.328 1.2 7.154 7.154 0 01.929 1.726 11.685 11.685 0 01.664 1.992c.4 1.2.8 2.125 1.2 3.054a7.535 7.535 0 001.587 2.388 5.123 5.123 0 002.257 1.461 8.035 8.035 0 003.187.531 1 1 0 00.664-.133c.133 0 .266-.266.266-.4v-1.99c0-.266 0-.4-.133-.531 0 .133-.133.133-.4.133m23.238-20.848a9.247 9.247 0 00-3.452-2.921 12.41 12.41 0 00-5.179-1.062 10.317 10.317 0 00-5.178 1.062 7.46 7.46 0 00-3.452 2.921 11.094 11.094 0 00-1.992 4.382 24.686 24.686 0 00-.664 5.577 29.331 29.331 0 00.4 5.179 14.549 14.549 0 001.328 3.851 10.416 10.416 0 001.859 2.656 7.535 7.535 0 002.39 1.593 9.256 9.256 0 002.523.8 18.144 18.144 0 002.523.266h.266a16.269 16.269 0 002.523-.266 8.011 8.011 0 002.523-.8 12.471 12.471 0 002.39-1.593 10.674 10.674 0 001.992-2.656 21.622 21.622 0 001.321-3.851 28.286 28.286 0 00.531-5.179 24.862 24.862 0 00-.531-5.577 14.94 14.94 0 00-2.125-4.382m-1.855 14.208a46.252 46.252 0 01-.8 3.054 13.117 13.117 0 01-1.2 1.992 5.789 5.789 0 01-1.461 1.2 3.775 3.775 0 01-1.593.531 9.627 9.627 0 01-3.187 0 7.486 7.486 0 01-1.593-.531 4.151 4.151 0 01-1.461-1.2 7.207 7.207 0 01-1.2-1.992 9.3 9.3 0 01-.8-3.054 38.24 38.24 0 01-.266-4.249 20.616 20.616 0 01.4-4.116 8.852 8.852 0 011.2-3.452 7.72 7.72 0 012.257-2.39 6.985 6.985 0 013.452-.8 5.588 5.588 0 013.452.929 5.357 5.357 0 012.125 2.39 9.557 9.557 0 011.062 3.452 20.774 20.774 0 01.266 4.116 29.013 29.013 0 00-.664 4.116m29.611 6.9a3.928 3.928 0 01-1.328-.266 2.362 2.362 0 01-1.062-.929 7.656 7.656 0 01-1.062-1.859 21.873 21.873 0 01-1.2-2.921 4.909 4.909 0 00-.664-1.461 7.365 7.365 0 00-.8-1.062 2.382 2.382 0 00-.929-.664l-.8-.4a2.243 2.243 0 00.664-.266c.266-.133.531-.133.8-.266a7.339 7.339 0 003.452-2.788 7.148 7.148 0 001.2-4.116c0-2.523-.8-4.515-2.523-5.71-1.726-1.328-4.382-1.859-7.967-1.992h-9.016a.352.352 0 00-.4.4v1.603a.352.352 0 00.4.4l2.39.929-.133 23.5c0 .266 0 .4.133.4 0 .133.266.133.4.133h2.925c.266 0 .4 0 .4-.133s.133-.266.133-.4l.126-11.019h1.461a5.722 5.722 0 012.257.4 7.529 7.529 0 011.723 1.06 4.58 4.58 0 011.2 1.593c.266.664.664 1.328.929 2.125a20.428 20.428 0 001.061 2.522 12.033 12.033 0 001.461 2.125 6.067 6.067 0 002.125 1.461 6.755 6.755 0 002.921.531c.4 0 .664-.133.664-.266.133-.133.133-.266.133-.531v-1.726c0-.266 0-.4-.133-.531a1.276 1.276 0 01-.929.133m-9.832-11.95a8.561 8.561 0 01-2.656.4h-2.783v-9.828h3.187c.8 0 1.461.133 2.257.133a7.678 7.678 0 011.859.664 3.532 3.532 0 011.328 1.461 6.342 6.342 0 01.531 2.39 5.5 5.5 0 01-.4 2.125 3.625 3.625 0 01-1.2 1.593 10.587 10.587 0 01-2.125 1.062m34.663-12.346h-2.921c-.266 0-.4 0-.4.133s-.133.266-.133.4l-.133 17a10.644 10.644 0 01-.4 3.054 4.7 4.7 0 01-1.2 2.125 5.253 5.253 0 01-1.992 1.328 7.731 7.731 0 01-2.523.4 5.389 5.389 0 01-2.523-.531 3.992 3.992 0 01-1.859-1.461 6.119 6.119 0 01-1.2-2.257 10.645 10.645 0 01-.4-3.054l.149-16.737c0-.266 0-.4-.133-.531s-.266-.133-.531-.133h-5.71a.352.352 0 00-.4.4v1.587a.352.352 0 00.4.4l2.39.8-.133 13.942a16.338 16.338 0 00.664 4.647 6.984 6.984 0 001.992 3.32 8.421 8.421 0 003.054 2.125 13.339 13.339 0 004.116.8 14.251 14.251 0 004.249-.664 8.951 8.951 0 003.187-2.125 7.687 7.687 0 001.992-3.32 15.223 15.223 0 00.8-4.515l.133-16.6c0-.133 0-.4-.133-.4a.581.581 0 00-.4-.133"></path></g></svg>