<svg xmlns="http://www.w3.org/2000/svg" width="102.681" height="51.835"><g fill="#718096"><path d="M50.369 26.402c-.787.8-1.454 1.546-2.2 2.212-2.066 1.851-4.227 1.844-6.2-.1q-5.263-5.173-10.434-10.441a4 4 0 01-.023-6.1Q36.749 6.598 42.12 1.355c1.9-1.854 4.157-1.8 6.1.082 2.738 2.66 5.413 5.385 8.114 8.083.708.707 1.444 1.388 2.11 2.132a7.859 7.859 0 011.251 1.723 3.639 3.639 0 01-.647 4.269c-1.078 1.188-2.333 2.215-3.492 3.3l-3.171-3.23c.439-.407.961-.86 1.447-1.348a1.666 1.666 0 00.015-2.7q-3.717-3.732-7.446-7.451a1.654 1.654 0 00-2.579 0q-3.742 3.751-7.48 7.506a1.6 1.6 0 00-.035 2.523c2.152 2.178 4.325 4.335 6.489 6.5.361.361.71.735 1.082 1.084a1.582 1.582 0 002.513-.028c.2-.2.41-.393.739-.706.539.582 1.051 1.158 1.589 1.709s1.079 1.045 1.65 1.599z"></path><path d="M47.268 9.065c.844.85 1.805 1.821 2.771 2.787.241.241.138.419-.063.615-.453.441-.912.879-1.34 1.345a1.59 1.59 0 00.02 2.353q3.767 3.811 7.567 7.59c1.013 1 1.791.982 2.795-.014 1.753-1.741 3.487-3.5 5.233-5.25.707-.708 1.428-1.4 2.13-2.114a1.705 1.705 0 00-.013-2.762q-3.719-3.732-7.444-7.457a1.752 1.752 0 00-2.7.038c-.588.592-.578.583-1.165-.022-.7-.718-1.414-1.415-2.118-2.125-.156-.157-.3-.328-.554-.616A31.594 31.594 0 0155.609.704c1.879-1.217 3.753-.563 5.3.966 2.483 2.444 4.936 4.919 7.4 7.384.963.964 1.938 1.918 2.873 2.909a4.014 4.014 0 01.031 5.964c-2.369 2.48-4.82 4.881-7.245 7.307-1.183 1.184-2.349 2.39-3.589 3.512-1.968 1.781-4.1 1.486-5.848-.224-3.46-3.384-6.852-6.837-10.267-10.266a4.608 4.608 0 01-1.583-3.393 3.485 3.485 0 01.947-2.4c1.133-1.172 2.378-2.231 3.64-3.398zM48.276 41.816c0-1.143-.034-2.288.008-3.429a2.565 2.565 0 012.847-2.725h4.161a2.641 2.641 0 012.876 2.734c.045 2.307.083 4.618-.027 6.921a1.792 1.792 0 00.648 1.682c.341.279.3.544-.042.791a1.273 1.273 0 00-.141.117c-.791.772-.781.762-1.614-.02a1.02 1.02 0 00-.637-.243c-2-.012-3.993.036-5.989-.005a2.066 2.066 0 01-2.064-2.086c-.047-1.244-.01-2.491-.01-3.736zm7.851 2.4c.071-.145.118-.2.118-.247.009-1.8.034-3.591.007-5.386a.976.976 0 00-1.09-1c-1.3-.026-2.61-.031-3.914 0a1 1 0 00-1.1 1.123 262.865 262.865 0 000 5.755c.011.914.359 1.224 1.3 1.243.754.015 1.509.007 2.263 0 .292 0 .584-.031 1.058-.058l-1.214-1.356c.361-.347.7-.641 1-.97.266-.291.466-.236.7.026.27.286.56.553.872.865zM3.003 47.718v-2.059c.223-.011.439-.029.655-.03 1.1-.006 2.205 0 3.308-.014.763-.012 1.056-.271 1.065-1.03.023-1.982.009-3.965.008-5.948a.866.866 0 00-.88-.975 73.69 73.69 0 00-4.283-.011c-.614.018-.841.377-.843 1.123-.01 2.964-.008 5.928-.011 8.892 0 .818-.019 1.636 0 2.453.011.442-.138.625-.6.611-1.683-.05-1.4.21-1.41-1.377q-.019-5.488.006-10.977a2.59 2.59 0 011.989-2.678 3.318 3.318 0 01.788-.076q2.113-.011 4.227 0a2.754 2.754 0 013.036 3.04q.006 3.25 0 6.5a2.342 2.342 0 01-2.574 2.591q-1.9.007-3.8 0c-.217-.003-.436-.023-.681-.035zM98.601 47.615c-1.365 0-2.733.058-4.094-.021a1.86 1.86 0 01-1.7-1.749c-.049-2.674-.078-5.351.006-8.023a2.324 2.324 0 012.458-2.161q2.267-.007 4.533 0a2.6 2.6 0 012.841 2.693c.051 1.307 0 2.617.017 3.925 0 .415-.2.538-.562.538h-6a.753.753 0 01-.287-.041 12.483 12.483 0 01-.067-1.662c.006-.11.354-.283.547-.287q1.929-.04 3.859-.008c.446.007.638-.143.618-.6-.022-.51.009-1.023-.013-1.533a1 1 0 00-1.1-1.114 102.452 102.452 0 00-3.92 0c-.81.018-1.125.378-1.128 1.2q-.01 2.729 0 5.458c.006 1.181.285 1.459 1.445 1.463 1.96.007 3.921.019 5.881-.007.558-.007.763.165.742.736-.047 1.273.194 1.253-1.2 1.255h-2.878zM19.084 47.738c-1.737 0-3.349.041-4.959-.014a2.093 2.093 0 01-2.091-2.086c-.06-2.532-.078-5.069.012-7.6a2.45 2.45 0 012.64-2.417c1.51-.019 3.022-.024 4.532 0a2.663 2.663 0 012.828 2.857c.02 2.882 0 5.764.015 8.645 0 .478-.152.647-.636.638-1.6-.03-1.4.139-1.4-1.354-.007-2.555 0-5.11-.007-7.664 0-.773-.278-1.1-1.049-1.118q-1.959-.043-3.919.008c-.762.021-1.054.362-1.058 1.133q-.014 2.851 0 5.7c0 .837.317 1.136 1.159 1.145 1.123.012 2.246.025 3.368.007.407-.006.6.086.572.542-.035.505-.007 1.012-.007 1.578zM40.443 47.712c-1.163 0-2.327-.01-3.49.005-.459.006-.664-.143-.652-.638.039-1.557-.212-1.373 1.358-1.379 1.817-.007 3.635 0 5.452-.006.933 0 1.162-.234 1.177-1.152.028-1.784-.036-1.85-1.841-1.853-1.143 0-2.287.007-3.43 0a2.523 2.523 0 01-2.7-2.619 12.655 12.655 0 01.091-2.38 2.375 2.375 0 012.469-2.023c2.225-.008 4.451.006 6.676-.016.483 0 .649.161.647.636-.006 1.5.045 1.266-1.229 1.274-1.8.012-3.594 0-5.39.005-1.078.005-1.377.317-1.375 1.384 0 1.682.156 1.831 1.866 1.832 1.307 0 2.614-.007 3.92.01 1.526.02 2.209.719 2.205 2.225 0 .818.011 1.636-.021 2.452a2.161 2.161 0 01-2.184 2.178c-1.183.034-2.368.007-3.552.007zM82.326 42.828c0 1.41-.014 2.82.009 4.229.008.489-.2.647-.653.663-1.276.047-1.277.055-1.277-1.242V39c0-1.105-.314-1.424-1.414-1.431a238.83 238.83 0 00-3.49-.005c-.937.007-1.263.331-1.265 1.25q-.007 2.82 0 5.639c0 .879.321 1.215 1.221 1.235a65.01 65.01 0 003.245 0c.476-.012.644.122.627.623-.055 1.6.144 1.4-1.43 1.391-1.2 0-2.409.009-3.607-.081a2.058 2.058 0 01-1.943-2.136 322.45 322.45 0 01.005-7.294 2.528 2.528 0 012.6-2.531c1.449-.009 2.9 0 4.347 0a2.743 2.743 0 013.015 3c.019 1.389.009 2.78.01 4.168zM60.41 40.911c0-1.513.014-3.026-.008-4.538-.007-.5.11-.758.68-.724 1.18.071 1.26-.294 1.254 1.272q-.013 3.8 0 7.6c0 .84.3 1.149 1.138 1.165q1.776.033 3.553.006c1.032-.015 1.359-.338 1.364-1.37.014-2.637.023-5.274 0-7.911-.006-.594.177-.788.766-.766 1.165.045 1.155-.176 1.154 1.171v8.034c0 1.976-.949 2.887-2.908 2.856-1.408-.022-2.816.007-4.225-.008a5.687 5.687 0 01-1.21-.138 2.019 2.019 0 01-1.516-1.932c-.039-1.573-.011-3.147-.011-4.721zM34.204 42.797c0 2.024.006 4.048 0 6.073s-.906 2.935-2.913 2.953c-2.165.02-4.33 0-6.495.011-.461 0-.653-.117-.65-.621.008-1.5-.012-1.5 1.478-1.5h5.147c1.165 0 1.431-.271 1.432-1.455 0-3.967.015-7.933-.008-11.9 0-.6.179-.779.765-.757 1.4.052 1.239-.176 1.243 1.243.004 1.983 0 3.97.001 5.953z"></path><path d="M31.206 45.613V47.7a2.359 2.359 0 01-.319.047c-1.449 0-2.9.021-4.347 0a2.259 2.259 0 01-2.375-2.345c-.019-3.085 0-6.17-.012-9.255 0-.4.147-.54.538-.533 1.742.03 1.49-.212 1.5 1.423.01 2.431 0 4.862 0 7.294 0 1.027.234 1.273 1.252 1.282 1.238.008 2.481 0 3.763 0zM84.452 42.648c0-1.37-.011-2.74 0-4.109.018-1.928.995-2.879 2.931-2.88 1.1 0 2.206.021 3.308-.009.466-.013.609.168.611.6.005 1.573.074 1.283-1.244 1.3-.837.013-1.675 0-2.512.008-.884.013-1.182.315-1.183 1.184q-.006 4.048 0 8.1c0 .825 0 .825-.8.854-.1 0-.2.013-.306.014-.778.009-.812-.02-.814-.834v-4.232z"></path></g></svg>