<svg xmlns="http://www.w3.org/2000/svg" width="146.397" height="60"><g fill="#718096"><path d="M58.366 29.828c.06 1.563.4 2.943 1.76 3.743a4.169 4.169 0 004.259-.049 2.571 2.571 0 00.67-.638 1.846 1.846 0 011.371-.746c1.277-.026 2.554-.008 3.9-.008-.066.229-.111.425-.178.612a7.618 7.618 0 01-6.446 5.163 10.434 10.434 0 01-4.175-.124 7.444 7.444 0 01-5.707-5.7 13.723 13.723 0 01-.042-6.983 7.492 7.492 0 016.793-5.919 11.191 11.191 0 014.271.308 7.391 7.391 0 015.507 6.3 34.534 34.534 0 01.275 3.507c.036.443-.151.547-.568.546-3.666-.015-7.334-.008-11-.008zm7.183-3.087c-.1-1.3-.371-2.495-1.563-3.172a3.808 3.808 0 00-4 .025 3.53 3.53 0 00-1.621 3.147zM87.446 25.041a33.853 33.853 0 01-3.482-.039 2.179 2.179 0 01-1.237-.841 4.21 4.21 0 00-4.941-1.01 1.189 1.189 0 00-.077 2.128 8.153 8.153 0 001.819.731c1.329.372 2.685.65 4.013 1.03a15.239 15.239 0 012.069.821 4.091 4.091 0 012.482 4.077 5.378 5.378 0 01-3.939 5.473 13.869 13.869 0 01-8.033.156 5.383 5.383 0 01-4.124-5.867h4.491c.053.061.089.083.094.112a2.727 2.727 0 002.6 2.521 5.355 5.355 0 002.717-.135 3 3 0 00.867-.451 1.193 1.193 0 00-.066-2.075 12.161 12.161 0 00-2.458-.908c-1.324-.394-2.668-.721-4-1.094a6.253 6.253 0 01-.911-.372 4.443 4.443 0 01-2.943-3.872 5.307 5.307 0 012.261-4.953 7.252 7.252 0 013.527-1.265 11.37 11.37 0 015.76.669 5.572 5.572 0 013.505 4.926 2.318 2.318 0 01.006.238zM128.134 37.921h-4.623c-.014-.244-.037-.46-.037-.676V26.767v-.622a2.823 2.823 0 00-1.806-2.874 3.4 3.4 0 00-3.692.546 2.919 2.919 0 00-.891 2.4q-.005 5.5 0 11v.7h-4.772v-.559-10.27a10.977 10.977 0 01.586-3.825 4.89 4.89 0 012.2-2.654 9.842 9.842 0 019.623-.428 5.346 5.346 0 013.127 4 13.6 13.6 0 01.3 2.518c.034 3.6.017 7.192.017 10.789.001.134-.019.268-.032.433zM146.269 25.042c-1.567 0-3.036.008-4.5-.013a.637.637 0 01-.422-.284 3.545 3.545 0 00-4.332-1.485 2.863 2.863 0 00-1.82 1.732 9.437 9.437 0 00-.037 6.946 3.674 3.674 0 006.1.993 2.28 2.28 0 011.866-.826c1.066.029 2.135.007 3.276.007a7.507 7.507 0 01-2.594 4.157 8.907 8.907 0 01-6.765 1.7 7.319 7.319 0 01-6.611-5.645 13.881 13.881 0 01.026-7.686 7.313 7.313 0 017.044-5.5 9.605 9.605 0 015.269 1.062 7.663 7.663 0 013.5 4.842zM35.19 29.678l-12.255 12.27-3.159-3.156 9.113-9.069-8.944-8.92 3.189-3.2zM12.288 17.64l3.051 3.064-9.119 9.089 9.026 9.012-3.207 3.18L0 29.93zM102.636 37.951h-5.112c-.009-.173-.027-.354-.027-.535V14.91a2.585 2.585 0 015.165 0v22.507c0 .169-.021.337-.026.534zM52.672 19.287v4.973H51.21c-2.895.017-4.139 1.254-4.148 4.151-.01 2.973 0 5.945 0 8.918v.657h-4.895c-.011-.168-.032-.351-.032-.532 0-2.8-.028-5.6.013-8.4a15.8 15.8 0 01.307-3.138c.785-3.586 3.115-5.613 6.652-6.344a14.075 14.075 0 013.565-.285zM110.432 38.029h-5.115c-.009-.205-.025-.389-.025-.573V21.59a2.586 2.586 0 015.164 0q.006 7.958 0 15.918c.005.151-.009.301-.024.521zM94.98 37.903h-5.093c-.013-.195-.036-.376-.036-.558V21.481a2.579 2.579 0 015.153 0q.006 7.931 0 15.864c0 .168-.015.338-.024.558zM110.493 15.432a2.584 2.584 0 11-5.168.026 2.584 2.584 0 115.168-.026zM95.096 15.29a2.581 2.581 0 11-2.569-2.567 2.578 2.578 0 012.569 2.567zM17.353 59.998l-.883-15.867h1.952q-.5 7.954-1 15.869zM18.613 15.846h-1.95L17.545.002h.075c.332 5.268.662 10.538.993 15.844z"></path></g></svg>