<svg xmlns="http://www.w3.org/2000/svg" width="75.132" height="53.376"><g fill="#718096"><path d="M41.303 9.033c-2.919 1.51-5.814 3.067-8.761 4.52-6.117 3.016-12.2 6.12-18.427 8.889a31.111 31.111 0 01-8.23 2.167C2.414 25.1.291 23.047.239 19.528a25.843 25.843 0 01.409-4.53c.454-2.779.893-5.571 1.568-8.3 1.239-5.01 4.335-7.054 9.5-6.647a32.2 32.2 0 0111.459 3.354c1.972.947 3.922 1.941 5.9 2.88a24.777 24.777 0 0012.228 2.748zM33.87 15.995c2.264-1.174 4.514-2.376 6.794-3.517 6.235-3.12 12.456-6.272 18.739-9.294a32.008 32.008 0 019.315-2.89c4.03-.581 6.526 1.359 6.407 5.434A74.818 74.818 0 0174 14.205a43.71 43.71 0 01-.549 2.954c-1.33 6.161-4.654 8.43-10.921 7.611a37.587 37.587 0 01-11.556-3.845c-2.534-1.231-5.071-2.471-7.68-3.526a20.168 20.168 0 00-9.424-1.404zM50.605 38.334l2.782-2.985c1.742-1.878 3.5-3.743 5.215-5.645a3.435 3.435 0 012.744-1.219c1.406.02 2.812 0 4.47 0l-11.247 11.73c2.72.195 3.588 2.138 4.562 3.974 1.509 2.844 3.023 5.685 4.621 8.691a20.712 20.712 0 01-4.2-.076 3.829 3.829 0 01-2.046-1.692c-1.089-1.721-1.974-3.57-2.949-5.363a3.393 3.393 0 00-3.246-1.951 2.159 2.159 0 00-2.349 2.006c-.419 2.333-.819 4.669-1.239 7.072h-4.888l4.268-24.23c2.725-.564 4.644 1.218 4.223 3.872-.3 1.9-.656 3.787-.987 5.68zM.069 45.668c2.245-.474 3.155 0 4.333 1.786a4.155 4.155 0 001.964 1.491 9.123 9.123 0 005.586.074 2.843 2.843 0 002.314-2.531c.106-1.338-.83-1.924-1.813-2.39-1-.475-2.069-.81-3.1-1.215-1.173-.46-2.373-.864-3.5-1.41-2.031-.981-3.648-2.359-3.7-4.846-.062-2.8.736-5.344 3.3-6.743 4.011-2.188 8.174-1.9 12.148.152 2.035 1.052 2.522 3.1 2.348 5.267a.862.862 0 01-.614.552 2.971 2.971 0 01-3.228-1.46 3.032 3.032 0 00-2.554-1.729 18.243 18.243 0 00-3.964.032 3.8 3.8 0 00-1.98 1.116c-1.3 1.313-1.105 2.8.512 3.682 1.261.687 2.659 1.117 3.979 1.7a40.913 40.913 0 014.823 2.241c2.1 1.278 2.7 3.213 2.052 5.586a7.808 7.808 0 01-6.148 5.919 16.826 16.826 0 01-7.724-.025c-3.766-.878-5.478-3.369-5.034-7.249zM26.193 28.567c3.141-.268 4.681 1.464 4.143 4.42-.869 4.778-1.708 9.562-2.554 14.345-.063.355-.076.719-.128 1.231h5.513c.89 0 1.785-.04 2.671.026a3.168 3.168 0 013.042 3.625c-.038.272-.457.7-.7.7-5.269.035-10.538.02-15.807.008a1.9 1.9 0 01-.44-.154z"></path></g></svg>