<svg xmlns="http://www.w3.org/2000/svg" width="232.466" height="46.835"><g fill="#718096"><path d="M36.132 46.518c-6.295 1.211-10.278-1.042-12.7-6.771-1.988-4.7-3.988-9.408-6.148-14.034-.995-2.13-2.383-4.078-3.788-6.436 4.995.671 8.829 2.515 10.786 7.077 2.079 4.846 3.919 9.8 6.007 14.638 1.357 3.141 2.599 4.191 5.843 5.526zM.003 18.991c2.068-6.049 6.158-8.589 11.9-7.907 7.461.886 14.919 1.836 22.582.913-2.374 3.165-4.988 6.172-9.362 6.008-4.774-.18-9.529-.855-14.292-1.31-3.647-.348-7.296-.735-10.828 2.296zM42.53 2.317c2.38 3.1 3.367 6.481 1.43 10.04-1.491 2.74-3.414 5.243-5.144 7.852-1.505 2.268-3.1 4.482-4.489 6.82s-2.547 4.771-3.793 7.136a10.69 10.69 0 01-.173-11.721c2.515-3.767 5.378-7.3 8.106-10.925 2.05-2.726 4.027-5.474 4.063-9.202z"></path><path d="M31.17 37.313c.338.164.684.312 1.012.493 2.785 1.538 5.069.987 6.219-1.964a72.152 72.152 0 002.25-8.318 8.794 8.794 0 01.709-2.243c.577 5.5.927 10.965-1.445 16.152-1.466 3.206-3.827 3.661-6.158 1.082a34.7 34.7 0 01-3.105-4.763zM37.065 9.653c-1.747-5.3-3.661-6.38-8.826-4.724a79.545 79.545 0 01-7.89 2.474 19.726 19.726 0 012.973-2.122 95.1 95.1 0 0111.438-5c3.29-1.046 5.111.928 4.393 4.36a27.919 27.919 0 01-2.088 5.012zM17.037 34.186c-5.273-2.273-10.022-4.413-13.475-8.455-1.013-1.186-2.111-3.382-1.649-4.469.552-1.3 2.642-2.183 4.243-2.722 1.289-.434 2.84-.088 4.325-.088-.083.531-.053.766-.138.822-3.909 2.53-4.266 4.722-.984 8.065 2.241 2.282 4.774 4.278 7.678 6.847zM62.672 27.2a4.872 4.872 0 003.069-.776 2.454 2.454 0 00.957-2 1.384 1.384 0 00-.149-.627 1.834 1.834 0 00-.528-.594q-.38-.3-.693-.5a6.832 6.832 0 00-1.007-.478q-.693-.281-1.073-.429T62 21.347l-1.242-.447q-5.973-2.143-5.973-6.1a6.97 6.97 0 012.442-5.33A9.226 9.226 0 0163.7 7.24a12.418 12.418 0 013.515.462 8.886 8.886 0 012.524 1.122 7.716 7.716 0 011.661 1.551 7.04 7.04 0 011.007 1.6 8.715 8.715 0 01.462 1.435l.2.924h-5.051a2.572 2.572 0 00-.693-1.32 5.194 5.194 0 00-3.927-1.32 4.2 4.2 0 00-2.492.693 2.1 2.1 0 00-.973 1.782 1.623 1.623 0 00.413 1.056 3.668 3.668 0 001.138.874q.726.38 1.584.726t1.947.743q.264.1.462.165l.4.132q5.94 2.145 5.94 6.105a6.968 6.968 0 01-2.574 5.445 10.025 10.025 0 01-6.835 2.245 12.644 12.644 0 01-4.076-.611 8.982 8.982 0 01-2.837-1.468 8.235 8.235 0 01-1.766-2.03 9.611 9.611 0 01-1.006-2.046 11.1 11.1 0 01-.413-1.765h5.082a4.208 4.208 0 00.858 1.749 5.47 5.47 0 004.422 1.711zm18.48-13.03l-.363 2.046h.2a6.732 6.732 0 011.353-1.254 6.7 6.7 0 013.96-1.287 6.219 6.219 0 014.8 2.079A7.716 7.716 0 0193 21.166a10.639 10.639 0 01-2.623 7.442 8.073 8.073 0 01-6.156 2.892 6.094 6.094 0 01-3.321-.814 5.244 5.244 0 01-1.8-1.732l-.264-.462h-.231l-1.512 8.778h-4.62l4.059-23.1zm3.267 3.465a4.3 4.3 0 00-3.382 1.584 6.336 6.336 0 00-1.37 4.29 4.027 4.027 0 001.056 2.954 3.8 3.8 0 002.838 1.072 4.3 4.3 0 003.382-1.584 6.336 6.336 0 001.37-4.29 4.027 4.027 0 00-1.056-2.954 3.8 3.8 0 00-2.838-1.072zM106.4 31l.363-2.046h-.2a5.414 5.414 0 01-1.354 1.287 6.725 6.725 0 01-3.96 1.259 6.219 6.219 0 01-4.8-2.079A7.716 7.716 0 0194.55 24a10.653 10.653 0 012.624-7.425 8.054 8.054 0 016.154-2.9 6.212 6.212 0 013.3.792 5.088 5.088 0 011.815 1.716l.264.5h.231l.429-2.508h4.62L111.017 31zm-3.237-3.465a4.3 4.3 0 003.383-1.584 6.336 6.336 0 001.369-4.29 4.027 4.027 0 00-1.056-2.954 3.8 3.8 0 00-2.838-1.072 4.3 4.3 0 00-3.382 1.584 6.336 6.336 0 00-1.37 4.29 4.027 4.027 0 001.056 2.954 3.8 3.8 0 002.838 1.072zM126.824 31l.363-2.046h-.2a5.414 5.414 0 01-1.351 1.287 6.725 6.725 0 01-3.96 1.259 6.219 6.219 0 01-4.8-2.079A7.716 7.716 0 01114.977 24a10.653 10.653 0 012.623-7.421 8.054 8.054 0 016.155-2.9 6.212 6.212 0 013.3.792 5.088 5.088 0 011.815 1.716l.264.5h.231l1.518-8.787h4.617L131.444 31zm-3.234-3.465a4.3 4.3 0 003.382-1.584 6.336 6.336 0 001.369-4.29 4.027 4.027 0 00-1.056-2.954 3.8 3.8 0 00-2.838-1.072 4.3 4.3 0 00-3.382 1.584 6.336 6.336 0 00-1.365 4.29 4.027 4.027 0 001.056 2.954 3.8 3.8 0 002.834 1.072zm20.295 3.965a8.39 8.39 0 01-6.1-2.277 7.83 7.83 0 01-2.343-5.874 9.254 9.254 0 012.854-6.864 9.5 9.5 0 016.913-2.805 8.125 8.125 0 016.006 2.31 7.876 7.876 0 012.31 5.808q0 .165-.1 1.254l-.066.528h-13.236a4.185 4.185 0 001.105 2.9 3.609 3.609 0 002.689 1.056 5.077 5.077 0 003.135-.99 3.675 3.675 0 00.957-.99h5.082a12.067 12.067 0 01-1.98 2.97 9.562 9.562 0 01-7.226 2.974zm-3.267-10.73h8.019a3.917 3.917 0 00-1.221-2.277 3.34 3.34 0 00-2.31-.858 4.737 4.737 0 00-4.488 3.135zM175.005 31h-2.868l-1.482-17.128a8.866 8.866 0 01.008-1.128q.04-.628.089-1.176h-.064q-.161.516-.4 1.16a8.482 8.482 0 01-.5 1.112L161.019 31h-2.949l-1.837-23.106h2.867l1.192 17.6a10.729 10.729 0 010 1.176 10.521 10.521 0 01-.113 1.128h.064q.081-.226.193-.516t.242-.6q.129-.314.266-.62t.266-.564l8.975-17.6h2.481l1.45 17.725a8.13 8.13 0 01.032 1.063q-.016.612-.064 1.112h.064q.081-.258.185-.556t.226-.6q.121-.3.242-.58t.234-.508l8.476-17.66h3.013zm19.442.33a7.876 7.876 0 01-5.775-2.178 7.37 7.37 0 01-2.211-5.478 9.176 9.176 0 012.739-6.781 8.947 8.947 0 016.534-2.723 7.876 7.876 0 015.775 2.178 7.37 7.37 0 012.211 5.478 9.176 9.176 0 01-2.739 6.782 8.947 8.947 0 01-6.533 2.722zm6.666-9.372a5.079 5.079 0 00-1.535-3.844 5.6 5.6 0 00-4.043-1.469 6.177 6.177 0 00-4.57 1.931 6.786 6.786 0 00-1.9 4.967 5.079 5.079 0 001.535 3.843 5.6 5.6 0 004.043 1.468 6.177 6.177 0 004.57-1.93 6.786 6.786 0 001.901-4.966zm16.929-4.983h-2.508a5.237 5.237 0 00-3.547 1.3 5.609 5.609 0 00-1.865 3.382L208.473 31h-2.64l2.9-16.5h2.64l-.4 2.244q.066-.1.2-.264a6.136 6.136 0 01.594-.578 6.355 6.355 0 01.99-.726 6.493 6.493 0 011.386-.578 6.025 6.025 0 011.782-.264h2.575zm7.027 5.968L228.873 31l-2.917.032-2.078-5.172-.266-.693-.314-.806h-.081q-.113.161-.266.363l-.3.395q-.145.193-.282.363t-.234.3L217.819 31h-3.142l7.428-8.218L218.4 14.5h2.917l1.982 5.253q.145.387.29.838t.226.709h.064q.1-.113.226-.282l.274-.363q.145-.193.3-.387t.3-.354l4.479-5.414h3.013z"></path></g></svg>