<svg xmlns="http://www.w3.org/2000/svg" width="137.084" height="39.835"><g fill="#718096"><path d="M0 34.976c.506-.811 1.022-1.618 1.519-2.436q4.9-8.085 9.8-16.175c.067-.111.123-.229.217-.407H.944c-.56 0-.562 0-.562-.557v-4.454c0-.529 0-.531.541-.531q9.448 0 18.9.01a.665.665 0 00.756-.555 13.757 13.757 0 016.164-7.455c1.064-.654 2.235-1.137 3.358-1.7a.239.239 0 01.208 0c-.413.29-.838.565-1.238.872a15.284 15.284 0 00-6.029 10.27 27.146 27.146 0 00-.16 3.105.539.539 0 01-.392.564c-.656.276-1.292.6-1.983.928l-.248-.724L9 34.305h127.233c.974 0 .844-.112.844.832 0 1.565-.016 3.13-.025 4.7H0z"></path><path d="M45.558 25.49a13.353 13.353 0 01-9.355 2.2c-.126-.7.013-.829.77-.854a10.6 10.6 0 006.229-2.115 19.7 19.7 0 002.1-2 1.086 1.086 0 00.239-.691q.028-2.915 0-5.83c0-.411.12-.557.531-.526s.811-.006 1.216.011c.3.012.412-.1.4-.4a9.964 9.964 0 00-.883-3.759 10.658 10.658 0 00-8.688-6.469 10.5 10.5 0 00-8.442 2.512 10.619 10.619 0 00-3.747 6.79.673.673 0 01-.956.553c-.086-.031-.165-.241-.151-.358a20.553 20.553 0 01.464-3.313A12.84 12.84 0 0135.86 1.647a13.125 13.125 0 0113.636 6.486 12.807 12.807 0 011.688 5.894c.013.416.016.833 0 1.249-.013.288.065.445.38.405s.428.12.421.424c-.012.577 0 1.155 0 1.732l.141.064a3.226 3.226 0 00.545-.957 15.863 15.863 0 00-1.2-9.409 15.213 15.213 0 00-7.067-7.37.256.256 0 01-.142-.166c.2.052.4.1.6.158a18.282 18.282 0 018.262 4.912 11.859 11.859 0 013.368 7.027 21.951 21.951 0 01-.022 2.625c0 .184-.038.368-.062.58 2.53-.164 4.641.5 6.141 2.885a1.678 1.678 0 01.207-.39 7.416 7.416 0 017.081-2.383 5.39 5.39 0 014.619 4.765 12 12 0 01.16 1.891c.015 3.685.007 7.369.006 11.054 0 .576 0 .577-.587.577h-5.271c-.573 0-.574 0-.574-.59v-9.15a5.406 5.406 0 00-.085-1 2.207 2.207 0 00-2.213-1.97 2.365 2.365 0 00-2.51 1.956 6.014 6.014 0 00-.1 1.2c-.008 3 0 5.992 0 8.989 0 .562 0 .564-.56.564H57.41c-.538 0-.545 0-.545-.539 0-3 .011-5.993-.011-8.989a5.668 5.668 0 00-.234-1.708 2.263 2.263 0 00-2.973-1.355.872.872 0 00-.323.23 6.289 6.289 0 01-.531.555 2.194 2.194 0 00-.8 1.929c.013 3.05.005 6.1.005 9.151v.4c0 .208-.084.323-.315.322q-2.9-.006-5.8 0c-.335 0-.311-.224-.311-.444v-6.074z"></path><path d="M27.353 33.787c-5.406 0-9.214-3.25-9.918-7.72a9.121 9.121 0 017.683-10.391 9.276 9.276 0 011.21-.078c.268 0 .379-.091.416-.364A9.119 9.119 0 1137.369 25.41a8.327 8.327 0 01-1.207.112c-.592.022-.6.009-.689.6a8.84 8.84 0 01-2.55 5 8.608 8.608 0 01-5.57 2.665zm2.24-8.957a3.143 3.143 0 00-3.133-3.189 3.207 3.207 0 00-3.156 3.154 3.16 3.16 0 003.082 3.122 3.081 3.081 0 003.207-3.087zm6.185-5.16a3.119 3.119 0 10-3.149-3.126 3.131 3.131 0 003.149 3.126zM111.77 26.515a3.4 3.4 0 002.19 2.522 4.754 4.754 0 004.3-.522 4.833 4.833 0 00.892-.7c.3-.311.5-.264.8-.006.932.8 1.882 1.581 2.839 2.352.253.2.249.351.047.586a9.205 9.205 0 01-6.133 3.279 10.677 10.677 0 01-6.664-1.181 8.534 8.534 0 01-4.4-6.749 9.846 9.846 0 011.406-6.711 8.55 8.55 0 016.511-4.04 9.619 9.619 0 015.259.781 8.358 8.358 0 014.624 6.05 14.873 14.873 0 01.327 3.9c-.01.395-.238.414-.537.414q-3.79-.007-7.581 0h-3.405c-.139-.003-.281.012-.475.025zm2.922-3.361h2.509c.568 0 .592-.013.438-.572a4.9 4.9 0 00-.422-1.087 2.809 2.809 0 00-4.829-.217 6.385 6.385 0 00-.624 1.391c-.154.426-.091.482.378.484.851.003 1.699.001 2.551.001zM92.797 27.318c0 1.984-.009 3.968.008 5.951 0 .386-.116.515-.507.511q-2.675-.025-5.352 0c-.41 0-.529-.125-.528-.532.014-3.928.008-7.854.008-11.781 0-.571 0-.571-.58-.571-.391 0-.783-.006-1.176 0-.236 0-.344-.1-.344-.339v-4.372c0-.267.124-.353.375-.347.432.01.865-.017 1.3.008.342.019.438-.111.435-.442a8.706 8.706 0 01.721-3.826 6.1 6.1 0 014.963-3.576 11.531 11.531 0 014.3.311.5.5 0 01.445.587c-.022.958-.006 1.916-.008 2.874 0 .551-.01.516-.587.5a3.452 3.452 0 00-2.883 1 3.346 3.346 0 00-.734 2.3c-.006.3.185.369.456.367 1.068-.01 2.136.008 3.2-.01.377-.007.533.1.528.5a167.34 167.34 0 000 4.008c0 .348-.122.475-.475.47-1.027-.017-2.054.008-3.081-.012-.365-.008-.49.1-.487.477.013 1.973.003 3.961.003 5.944zM131.228 18.835a22.51 22.51 0 011.441-1.941 5 5 0 013.834-1.533c.3 0 .407.111.405.405q-.01 2.975 0 5.949c0 .3-.12.393-.41.4a9.406 9.406 0 00-1.569.126 4.311 4.311 0 00-3.517 3.8 12.73 12.73 0 00-.176 2.009 214.801 214.801 0 000 5.14c0 .382-.109.516-.5.512a302.348 302.348 0 00-5.471 0c-.351 0-.47-.109-.47-.463q.012-8.559 0-17.118c0-.323.093-.456.438-.453q2.776.019 5.552 0c.372 0 .459.146.453.481-.02.907-.01 1.81-.01 2.686zM76.533 24.761v-8.463c0-.54 0-.542.53-.542 1.811 0 3.623.008 5.433-.008.358 0 .468.117.468.463q-.01 8.544 0 17.088c0 .376-.144.484-.505.482q-2.717-.02-5.433 0c-.4 0-.5-.139-.5-.518.013-2.833.007-5.668.007-8.502zM98.186 24.731c0-2.821.008-5.642-.009-8.463 0-.412.121-.527.528-.522q2.7.03 5.393 0c.377 0 .522.093.522.494q-.016 8.5 0 17.007c0 .4-.125.539-.536.535q-2.7-.029-5.393 0c-.385 0-.513-.114-.512-.506.013-2.849.007-5.697.007-8.545zM76.288 9.943a3.23 3.23 0 013.279-3.241 3.25 3.25 0 11-.072 6.5 3.2 3.2 0 01-3.207-3.259zM104.559 10.02a3.206 3.206 0 01-3.323 3.185 3.251 3.251 0 113.323-3.185z"></path></g></svg>