<?xml version="1.0" encoding="utf-8"?>
<svg xmlns="http://www.w3.org/2000/svg" viewBox="221.1929 238.9037 19.9997 16.0027" width="19.9997px" height="16.0027px"><g class="fa-duotone-group" transform="matrix(0.031252000480890274, 0, 0, 0.031252000480890274, 221.19211145031616, 238.90535329141244)" id="object-0"><path class="fa-secondary" d="M225.2 471.2c-4.9 17 5 34.7 22 39.6c2.9 .8 5.9 1.2 8.8 1.2c13.9 0 26.7-9.2 30.7-23.2l128-448c.8-2.9 1.2-5.9 1.2-8.8c0-13.9-9.2-26.7-23.2-30.8c-17-4.9-34.7 5-39.6 22l-128 448z" style="fill: rgba(47, 124, 231, 0.59);"/><path class="fa-primary" d="M473.4 121.4c-12.5 12.5-12.5 32.8 0 45.3L562.7 256l-89.4 89.4c-12.5 12.5-12.5 32.8 0 45.3s32.8 12.5 45.3 0l112-112c12.5-12.5 12.5-32.8 0-45.3l-112-112c-12.5-12.5-32.8-12.5-45.3 0zm-306.7 0c-12.5-12.5-32.8-12.5-45.3 0l-112 112c-12.5 12.5-12.5 32.8 0 45.3l112 112c12.5 12.5 32.8 12.5 45.3 0s12.5-32.8 0-45.3L77.3 256l89.4-89.4c12.5-12.5 12.5-32.8 0-45.3z" style="fill: rgb(37, 99, 235);"/></g></svg>