<?xml version="1.0" encoding="utf-8"?>
<svg xmlns="http://www.w3.org/2000/svg" viewBox="225.474 207.7377 19.9999 29.0908" width="19.9999px" height="29.0908px"><path class="fa-secondary" d="M16 64C16 28.7 44.7 0 80 0L304 0c35.3 0 64 28.7 64 64l0 384c0 35.3-28.7 64-64 64L80 512c-35.3 0-64-28.7-64-64L16 64zm64 0l0 320 224 0 0-320L80 64zm64 384c0 8.8 7.2 16 16 16l64 0c8.8 0 16-7.2 16-16s-7.2-16-16-16l-64 0c-8.8 0-16 7.2-16 16z" style="fill: rgba(37, 99, 235, 0.435);" id="object-0" transform="matrix(0.056818000972270966, 0, 0, 0.056818000972270966, 224.56494475252842, 207.7376892527593)"/></svg>