<?xml version="1.0" encoding="utf-8"?>
<svg xmlns="http://www.w3.org/2000/svg" viewBox="210.066 211.771 14.775 12" width="14.775px" height="12px"><path d="M 223.323 214.762 C 223.332 214.894 223.332 215.024 223.332 215.156 C 223.332 219.159 220.286 223.771 214.717 223.771 C 213 223.771 211.407 223.275 210.066 222.412 C 210.31 222.44 210.544 222.45 210.797 222.45 C 212.213 222.45 213.516 221.971 214.556 221.156 C 213.225 221.127 212.11 220.256 211.726 219.055 C 211.913 219.084 212.1 219.102 212.297 219.102 C 212.569 219.102 212.841 219.065 213.094 219 C 211.706 218.718 210.666 217.499 210.666 216.028 L 210.666 215.989 C 211.069 216.215 211.537 216.355 212.035 216.375 C 211.22 215.831 210.685 214.902 210.685 213.852 C 210.685 213.289 210.834 212.774 211.098 212.324 C 212.588 214.162 214.829 215.361 217.342 215.493 C 217.295 215.268 217.266 215.034 217.266 214.799 C 217.266 213.13 218.616 211.771 220.294 211.771 C 221.166 211.771 221.954 212.137 222.507 212.728 C 223.191 212.596 223.848 212.342 224.429 211.996 C 224.203 212.699 223.726 213.29 223.098 213.665 C 223.707 213.599 224.297 213.431 224.841 213.196 C 224.429 213.796 223.913 214.331 223.323 214.762 Z" style="fill: rgb(255, 255, 255);" id="object-0" transform="matrix(1, 0, 0, 1, -2.842170943040401e-14, 0)"/></svg>