<?xml version="1.0" encoding="utf-8"?>
<svg xmlns="http://www.w3.org/2000/svg" viewBox="24.1384 -10.656 448 512" width="16px" height="16px"><defs><pattern id="pattern-0-0" href="#pattern-0" patternTransform="matrix(1, 0, 0, 1, 211.5, 179.5)"/><pattern x="0" y="0" width="25" height="25" patternUnits="userSpaceOnUse" viewBox="0 0 100 100" id="pattern-0"><rect x="0" y="0" width="50" height="100" style="fill: black;"/></pattern><pattern id="pattern-0-1" href="#pattern-0" patternTransform="matrix(1, 0, 0, 1, 211.5, 243.5)"/></defs><g class="fa-duotone-group" transform="matrix(1, 0, 0, 1, 24.138401391184345, -10.655989805698255)" id="object-0"><path class="fa-secondary" d="M96 128l32 0 16 0 160 0 16 0 32 0c0 70.7-57.3 128-128 128s-128-57.3-128-128z" style="stroke-width: 0px; stroke: url(&quot;#pattern-0-0&quot;); fill: rgb(145, 179, 245);"/><path class="fa-primary" d="M352 80l0 48-32 0-16 0-160 0-16 0-32 0 0-48 0-37.7c0 0 0-.1 0-.1L96 39l0-23c0-8.8 7.2-16 16-16l2.4 0c3.6 0 7.2 1.2 10 3.5L140 16l3 2.4c.3 .2 .6 .4 .8 .6l.1 .1c10.2 7.5 23.8 8.3 34.9 2L209.1 4c4.6-2.6 9.7-4 14.9-4s10.4 1.4 14.9 4l30.2 17.2c11 6.3 24.7 5.5 34.9-2l.1-.1c.3-.2 .6-.4 .8-.6l3-2.4L323.6 3.5c2.8-2.3 6.4-3.5 10-3.5L336 0c8.8 0 16 7.2 16 16l0 23 0 3.2c0 0 0 .1 0 .1L352 80zM0 472c0-92.8 75.2-168 168-168l112 0c92.8 0 168 75.2 168 168l0 8c0 17.7-14.3 32-32 32L32 512c-17.7 0-32-14.3-32-32l0-8z" style="stroke-width: 0px; stroke: url(&quot;#pattern-0-1&quot;); fill: rgb(37, 99, 235);"/></g></svg>